<?xml version="1.0" standalone="no"?>
<!DOCTYPE svg PUBLIC "-//W3C//DTD SVG 20010904//EN"
 "http://www.w3.org/TR/2001/REC-SVG-20010904/DTD/svg10.dtd">
<svg version="1.0" xmlns="http://www.w3.org/2000/svg"
 width="1600.000000pt" height="1199.000000pt" viewBox="0 0 1600.000000 1199.000000"
 preserveAspectRatio="xMidYMid meet">

<g transform="translate(0.000000,1199.000000) scale(0.100000,-0.100000)"
fill="#000000" stroke="none">
<path d="M0 11075 c0 -503 2 -915 5 -915 4 0 20 7 37 16 28 15 46 14 100 -2
12 -4 18 0 18 10 0 9 -6 16 -14 16 -7 0 -19 6 -25 14 -9 10 -7 18 6 33 15 16
27 19 66 16 31 -4 47 -10 47 -19 0 -8 -7 -14 -15 -14 -20 0 -19 -14 1 -31 14
-11 19 -10 34 9 24 30 60 29 60 0 l1 -23 18 23 c11 12 29 22 40 22 20 0 21 6
21 80 l0 80 -54 0 -54 0 -4 48 c-4 45 4 72 23 72 5 0 9 -9 9 -20 0 -17 7 -20
40 -20 36 0 40 3 40 25 0 23 4 25 40 25 22 0 40 -4 40 -10 0 -5 6 -10 14 -10
7 0 19 -7 26 -15 8 -10 31 -15 66 -15 44 0 54 -3 54 -17 0 -14 12 -15 117 -10
74 4 119 11 124 19 6 9 11 9 22 0 16 -14 28 -6 21 13 -9 23 41 48 87 43 39 -4
43 -1 65 34 13 21 29 38 34 38 6 0 10 11 10 24 0 29 -63 96 -90 96 -23 0 -37
39 -19 51 20 13 29 11 29 -6 0 -11 11 -15 40 -15 l40 0 0 65 0 65 44 0 c37 0
50 6 80 36 20 20 36 40 36 45 0 5 -13 22 -29 37 -25 24 -28 32 -24 76 l5 48
37 -5 c20 -3 30 -3 24 0 -8 3 -13 22 -13 44 0 39 0 39 -40 39 -38 0 -40 -2
-40 -30 0 -39 -12 -38 -46 3 -17 20 -29 27 -31 20 -5 -13 -104 -19 -116 -7 -3
4 1 14 10 23 12 11 17 13 21 3 2 -6 13 -12 24 -12 17 0 18 3 8 15 -7 9 -9 22
-4 32 4 10 8 24 8 32 1 8 10 19 21 25 10 6 30 21 44 34 14 12 32 22 40 22 11
0 10 4 -4 13 -19 15 -13 37 11 37 10 0 14 12 14 40 l0 40 40 0 c29 0 40 4 40
15 0 11 -13 15 -54 15 l-54 0 -7 80 c-6 69 -10 80 -26 80 -12 0 -19 7 -19 20
0 17 7 20 40 20 33 0 40 -3 40 -20 0 -11 5 -20 10 -20 6 0 10 33 10 80 0 44 3
80 8 80 4 0 16 18 26 40 10 22 23 37 27 34 5 -3 6 2 3 11 -4 9 0 21 8 28 9 7
18 20 21 30 6 16 -29 17 -653 17 l-660 0 0 -915z"/>
<path d="M2265 11964 c-13 -20 -19 -23 -25 -13 -11 16 -38 -4 -50 -37 -5 -13
-30 -31 -59 -45 -41 -18 -51 -27 -51 -47 0 -14 7 -30 16 -37 10 -6 22 -27 28
-46 6 -19 22 -39 36 -46 14 -7 25 -17 25 -23 0 -12 33 -40 47 -40 4 0 8 9 8
20 0 17 7 20 40 20 29 0 40 -4 40 -15 0 -12 16 -15 80 -15 64 0 80 3 80 15 0
11 -11 15 -40 15 -22 0 -40 5 -40 10 0 6 18 10 40 10 38 0 40 2 40 30 0 17 5
30 10 30 6 0 10 18 10 39 l0 39 65 7 c36 4 69 5 72 1 4 -3 -1 -6 -10 -6 -13 0
-17 -9 -17 -40 l0 -40 -45 0 c-33 0 -45 -4 -45 -15 0 -8 9 -15 20 -15 15 0 20
-7 20 -25 0 -22 4 -25 40 -25 l40 0 0 55 0 55 40 0 40 0 0 50 0 50 40 0 c29 0
40 -4 40 -15 0 -11 11 -15 40 -15 22 0 40 -4 40 -10 0 -5 -18 -10 -40 -10 -40
0 -40 0 -40 -38 0 -37 -10 -48 -62 -68 -14 -5 -18 -18 -18 -55 0 -48 0 -48 38
-55 44 -8 52 -17 52 -66 l0 -38 50 0 50 0 0 40 c0 22 5 40 10 40 6 0 10 18 10
40 0 22 -3 40 -8 40 -12 0 -32 76 -32 122 0 76 -7 88 -51 88 -29 0 -39 4 -39
16 0 14 -11 15 -77 12 -43 -3 -62 -3 -42 -1 28 3 38 9 42 26 2 12 8 30 12 40
7 16 -8 17 -223 17 l-230 0 -17 -26z"/>
<path d="M3131 11974 c-11 -12 -12 -37 -8 -104 3 -49 3 -97 0 -108 -2 -11 -22
-28 -44 -37 -42 -19 -51 -45 -24 -75 19 -21 9 -60 -17 -60 -17 0 -19 -6 -17
-50 2 -40 6 -50 17 -45 46 17 86 -56 57 -102 -8 -12 -15 -36 -15 -53 0 -17 -5
-40 -10 -51 -9 -16 -7 -19 11 -19 18 0 20 -2 8 -16 -10 -13 -8 -19 14 -40 14
-13 31 -24 37 -24 31 0 84 -45 76 -65 -3 -8 -1 -15 4 -15 5 0 24 -13 42 -28
18 -16 48 -34 66 -41 20 -9 32 -20 32 -32 0 -11 4 -19 8 -19 15 0 68 -74 76
-103 4 -19 3 -26 -4 -22 -6 4 -10 -9 -10 -35 0 -24 4 -39 10 -35 5 3 5 -6 -1
-24 -6 -17 -9 -38 -6 -48 4 -15 5 -15 6 3 0 11 10 29 20 38 18 17 20 16 32
-18 7 -20 17 -36 21 -36 4 0 8 -18 8 -40 0 -22 4 -40 9 -40 4 0 6 -10 4 -22
-3 -14 4 -32 16 -45 17 -18 21 -35 21 -98 0 -71 -1 -75 -22 -75 -27 -1 -68
-73 -68 -120 0 -20 -6 -33 -17 -36 -70 -24 -70 -24 -71 -89 -1 -62 -17 -123
-29 -112 -7 8 -27 -28 -36 -65 -4 -14 -10 -33 -13 -42 -5 -13 0 -16 24 -14 47
3 64 -17 62 -76 -2 -77 0 -84 15 -51 l15 30 -6 -35 c-10 -63 -68 -250 -78
-250 -5 0 -15 8 -22 18 -13 16 -13 16 -14 0 0 -10 4 -18 9 -18 17 0 21 -32 10
-71 -7 -21 -16 -36 -22 -32 -12 7 -27 -16 -26 -42 0 -18 1 -17 15 5 l15 25 -6
-29 c-3 -15 -9 -41 -12 -57 -3 -16 -12 -29 -19 -29 -19 0 -41 -38 -48 -85 l-5
-40 19 50 c25 66 26 26 1 -51 -11 -32 -29 -93 -41 -134 -35 -120 -64 -197 -68
-177 -2 11 -13 17 -32 17 -28 0 -29 -1 -27 -55 2 -42 -1 -54 -10 -51 -8 4 -13
-3 -13 -17 0 -15 -10 -26 -29 -35 -27 -12 -34 -11 -70 10 -23 13 -41 31 -41
41 0 9 -7 17 -15 17 -8 0 -15 6 -15 14 0 20 -35 29 -60 16 -24 -13 -28 -65 -5
-74 8 -3 15 -11 15 -18 0 -7 14 -40 32 -73 33 -65 33 -93 -2 -102 -16 -4 -20
-14 -20 -43 0 -30 6 -43 30 -61 16 -13 30 -32 30 -43 0 -10 9 -34 21 -53 12
-18 19 -42 16 -53 -3 -13 -1 -17 9 -13 15 6 20 -22 5 -31 -4 -3 -11 -24 -15
-47 -8 -48 -30 -123 -86 -289 -56 -166 -146 -490 -136 -490 5 0 116 285 136
348 7 23 17 42 21 42 4 0 13 -15 20 -34 9 -26 21 -37 51 -47 21 -7 43 -18 49
-25 8 -9 18 -10 35 -3 14 5 40 9 57 9 18 1 43 7 57 15 14 8 40 14 58 15 18 0
42 5 52 10 15 8 30 6 62 -9 76 -33 130 -45 139 -29 14 21 11 -6 -11 -123 -37
-197 -207 -974 -220 -1006 -6 -15 -18 -23 -34 -23 -34 0 -77 -18 -92 -38 -23
-29 -16 -61 21 -99 19 -20 35 -39 35 -43 0 -4 -58 -127 -130 -274 -71 -146
-130 -269 -130 -272 0 -12 -551 -1114 -557 -1114 -3 0 -3 14 1 32 6 29 5 30
-7 14 -12 -17 -15 -15 -41 19 -26 33 -27 38 -12 54 9 10 13 20 10 24 -8 7 -99
-1 -144 -13 -46 -13 -90 -13 -90 0 0 6 -9 10 -20 10 -11 0 -23 6 -26 14 -3 8
-18 16 -35 20 -21 4 -29 11 -29 26 0 11 -4 20 -10 20 -5 0 -10 -4 -10 -10 0
-24 -17 -6 -39 40 -21 43 -27 49 -49 45 -13 -2 -22 -1 -19 2 9 8 -22 76 -38
86 -8 4 -15 14 -15 21 0 8 -14 16 -31 20 -49 9 -129 7 -129 -4 0 -5 -18 -10
-40 -10 -22 0 -40 5 -40 10 0 6 -5 10 -11 10 -6 0 -22 9 -36 19 -13 11 -31 17
-39 14 -8 -3 -14 1 -14 8 0 8 -12 27 -26 43 -20 23 -28 26 -34 15 -7 -11 -15
-9 -37 12 -15 15 -40 37 -55 49 -15 13 -25 27 -23 31 3 4 -5 11 -17 14 -46 14
-111 57 -98 65 8 5 0 12 -24 20 -20 6 -36 16 -36 20 0 5 -7 7 -15 4 -8 -4 -15
-1 -15 5 0 6 -6 11 -14 11 -7 0 -19 7 -26 15 -7 8 -16 12 -21 9 -9 -5 -96 53
-91 61 1 3 1 4 -1 3 -2 -2 -18 9 -36 25 -18 15 -36 27 -40 27 -4 0 -12 17 -17
37 -6 26 -15 39 -29 41 -11 2 -26 11 -32 20 -12 14 -13 14 -13 -1 0 -24 -27
-21 -35 3 -8 27 -45 27 -45 0 0 -11 -4 -20 -9 -20 -15 0 -71 88 -71 111 0 11
-12 30 -27 43 -24 21 -27 31 -28 86 0 41 -4 65 -12 67 -7 3 -13 -2 -13 -11 0
-24 -15 -19 -49 15 -31 31 -39 49 -21 49 6 0 10 5 10 10 0 6 -9 10 -19 10 -11
0 -31 14 -46 32 -20 24 -29 28 -35 18 -12 -19 -207 -8 -223 14 -7 8 -31 21
-54 29 l-43 15 0 -3099 0 -3099 8000 0 8000 0 0 1651 c0 1566 -1 1650 -17
1648 -21 -3 -63 21 -63 36 -1 21 -55 48 -102 52 -37 3 -59 -1 -82 -15 -25 -15
-45 -18 -84 -14 -43 4 -52 2 -52 -12 0 -12 -10 -16 -40 -16 -22 0 -40 5 -40
10 0 6 -18 10 -40 10 -28 0 -40 -4 -40 -15 0 -8 -11 -26 -25 -40 -22 -21 -35
-25 -80 -25 -50 0 -55 -2 -55 -23 0 -15 -9 -26 -30 -35 -16 -7 -43 -26 -60
-42 -17 -16 -40 -32 -51 -35 -12 -4 -18 -13 -15 -20 3 -9 0 -12 -10 -8 -9 3
-14 -1 -14 -13 0 -11 -14 -28 -30 -39 -20 -13 -30 -28 -30 -44 0 -37 -40 -111
-65 -123 -13 -6 -21 -16 -19 -23 3 -7 -8 -17 -25 -23 -19 -7 -31 -18 -31 -29
0 -10 -12 -26 -25 -36 -24 -17 -25 -17 -25 0 0 10 -10 29 -21 43 -15 17 -19
19 -15 7 3 -10 2 -16 -3 -13 -5 3 -11 -1 -15 -9 -12 -33 -35 -13 -157 140 -92
115 -101 125 -111 119 -14 -9 -9 -20 31 -70 39 -51 171 -243 171 -250 0 -16
-44 23 -52 47 -10 29 -28 40 -28 17 0 -6 -19 13 -42 43 -42 52 -45 54 -93 55
-41 1 -52 5 -60 22 -12 26 -42 29 -48 5 -4 -17 -5 -17 -6 0 -1 12 -10 17 -31
17 -22 0 -28 -4 -24 -15 4 -9 0 -15 -10 -15 -9 0 -16 7 -16 16 0 12 -9 15 -42
13 -78 -4 -90 -1 -86 24 3 19 -2 23 -42 28 -43 5 -44 6 -20 16 15 7 19 12 10
13 -10 1 -9 4 5 10 11 4 30 6 43 3 12 -3 22 -1 23 3 4 40 6 54 10 56 37 23 70
38 81 38 8 0 25 11 38 25 13 14 32 25 42 25 16 0 20 6 17 26 -2 13 27 24 62
24 27 0 43 8 69 34 25 26 43 36 74 39 l41 4 -42 1 c-45 2 -60 24 -25 36 21 7
55 28 63 39 4 5 23 7 42 6 42 -4 71 16 47 31 -10 6 -1 10 30 12 32 2 57 -3 87
-19 35 -19 46 -21 70 -12 15 6 50 11 78 10 l49 -2 -42 41 c-23 23 -42 43 -42
46 0 2 16 4 35 4 36 0 39 3 49 51 5 23 12 26 68 35 34 5 63 15 66 22 5 17 -47
16 -54 -1 -7 -19 -79 -7 -79 13 0 9 11 16 25 18 48 6 50 9 35 39 -13 24 -13
28 -1 31 24 5 26 43 4 72 -11 16 -17 33 -14 39 8 13 -10 51 -24 51 -6 0 -10
-9 -10 -19 0 -11 -4 -23 -10 -26 -6 -3 -10 -1 -10 6 0 8 -4 8 -13 1 -7 -6 -24
-9 -38 -6 -13 2 -18 2 -11 -2 17 -8 15 -24 -3 -24 -8 0 -15 5 -15 10 0 6 -4
10 -9 10 -10 0 -33 -52 -29 -66 1 -5 -3 -19 -10 -30 -9 -16 -9 -29 1 -53 10
-27 9 -34 -8 -51 -19 -18 -23 -19 -69 -5 -27 8 -57 15 -68 15 -28 0 -21 -18
10 -23 25 -4 25 -4 -5 -6 -18 0 -33 -5 -33 -11 0 -17 -18 -11 -23 8 -3 13 -4
13 -4 -3 0 -11 -10 -37 -22 -57 -23 -38 -46 -49 -53 -26 -3 9 -6 9 -12 0 -4
-7 -2 -12 3 -12 6 0 11 -13 11 -30 0 -28 -2 -30 -40 -30 -35 0 -40 3 -40 22 0
17 -3 19 -12 10 -9 -9 -9 -15 0 -24 18 -18 15 -41 -8 -61 -19 -16 -22 -16 -37
-1 -11 11 -18 13 -21 5 -5 -16 -34 -14 -61 5 -20 14 -22 23 -18 57 3 22 13 44
21 49 9 5 16 17 16 26 -1 20 -24 53 -36 51 -32 -5 -63 2 -58 15 4 10 -9 15
-47 20 -53 7 -103 32 -94 47 3 4 -4 13 -17 20 -17 9 -23 9 -26 0 -3 -9 -10 -7
-23 5 -26 23 -24 69 3 96 13 13 22 28 20 34 -1 6 9 16 23 22 28 13 32 34 10
55 -11 12 -12 17 -2 21 8 3 7 9 -6 19 -16 13 -22 13 -50 -1 -17 -9 -55 -18
-84 -20 -29 -3 -53 -8 -53 -12 0 -4 -34 -11 -76 -15 -56 -5 -79 -4 -84 5 -11
18 -124 8 -147 -12 -10 -9 -35 -19 -56 -23 -21 -4 -45 -14 -53 -23 -14 -14
-18 -12 -40 14 -29 36 -30 54 -3 54 11 0 17 5 14 10 -4 6 -9 8 -13 6 -4 -2
-29 0 -55 4 -36 5 -50 4 -54 -6 -3 -9 -27 -13 -78 -13 -41 0 -82 -4 -92 -9
-10 -5 -32 -12 -50 -15 -27 -5 -35 -2 -57 28 -14 18 -26 43 -26 54 0 13 -6 21
-17 21 -15 0 -15 2 1 19 20 22 11 31 -39 35 -20 2 -38 6 -41 9 -10 9 -74 -16
-74 -30 0 -8 -9 -27 -21 -42 -26 -35 -19 -60 21 -83 32 -18 39 -42 15 -52 -8
-3 -15 -16 -15 -29 0 -13 -8 -31 -18 -40 -18 -16 -20 -14 -40 31 -12 27 -22
60 -22 74 0 28 -17 37 -57 30 -14 -3 -23 -12 -23 -23 0 -23 -19 -34 -33 -20
-9 9 -7 16 10 29 16 12 23 33 28 75 l7 57 -66 0 c-38 0 -66 -4 -66 -10 0 -6
-15 -8 -37 -4 -32 4 -40 2 -51 -17 -12 -19 -12 -21 2 -16 21 8 45 -1 42 -16
-1 -7 -1 -9 1 -4 14 24 63 -3 63 -35 0 -10 5 -18 10 -18 26 0 5 -18 -42 -36
-29 -10 -56 -20 -60 -22 -4 -2 -8 3 -8 12 0 9 -4 16 -10 16 -14 0 -12 -32 4
-52 10 -14 15 -15 25 -5 10 9 12 7 9 -13 -4 -30 -33 -38 -58 -15 -11 10 -24
14 -31 9 -9 -5 -7 -10 7 -15 16 -6 15 -8 -8 -8 -16 -1 -28 -5 -28 -11 0 -5 -9
-10 -20 -10 -11 0 -20 -4 -20 -9 0 -5 -8 -11 -19 -14 -22 -5 -37 -68 -22 -95
7 -13 6 -23 -2 -31 -7 -7 -12 -26 -12 -43 0 -23 -5 -32 -20 -34 -11 -2 -23 2
-27 9 -5 8 -8 6 -8 -5 0 -19 -25 -25 -35 -8 -19 31 -65 -10 -65 -59 0 -23 -52
-81 -73 -81 -8 0 -17 -13 -20 -28 -5 -24 -11 -28 -42 -29 -23 -1 -38 4 -42 13
-4 11 -11 9 -29 -11 -24 -26 -48 -32 -59 -15 -3 5 -26 10 -51 10 -40 0 -45 2
-39 19 11 35 -11 67 -59 85 -42 16 -62 36 -35 36 6 0 9 11 7 23 -4 31 19 51
62 55 19 2 42 12 52 23 9 10 20 19 25 19 19 0 34 53 27 96 -3 24 -9 45 -13 45
-3 1 -16 3 -29 4 -13 1 -28 7 -35 14 -14 14 -27 14 -27 0 0 -5 6 -7 13 -3 6 5
-6 -9 -27 -29 -29 -28 -47 -37 -72 -37 -27 0 -34 -4 -34 -20 0 -16 -7 -20 -34
-20 -19 0 -41 3 -50 6 -28 11 -17 24 20 24 34 0 35 1 29 30 -11 52 -14 125 -4
136 16 19 -1 71 -28 83 -13 6 -22 7 -19 2 3 -5 -7 -11 -22 -14 -16 -3 -46 -21
-68 -41 -31 -28 -42 -32 -53 -23 -11 10 -13 9 -9 -3 3 -10 -6 -19 -25 -27 -22
-10 -27 -17 -22 -30 4 -10 7 -30 6 -46 -1 -21 5 -30 25 -37 14 -6 30 -8 35 -4
5 3 22 9 37 13 27 8 27 7 24 -30 -3 -30 -1 -39 11 -39 34 0 67 -23 67 -47 0
-28 3 -27 -44 -4 -37 19 -38 19 -69 1 -24 -15 -33 -16 -39 -7 -5 7 -8 2 -8
-15 0 -26 -3 -27 -60 -34 -33 -4 -63 -11 -66 -15 -3 -5 -16 -9 -28 -9 -13 0
-29 -7 -36 -15 -9 -11 -16 -11 -29 -3 -21 13 -77 -3 -73 -21 1 -6 -5 -27 -13
-47 -16 -38 -7 -74 19 -74 14 0 31 -60 27 -95 -2 -11 -9 -33 -17 -49 -13 -26
-12 -28 6 -23 11 3 20 1 20 -5 0 -5 4 -7 9 -4 12 8 21 -18 21 -60 0 -21 -4
-33 -10 -29 -5 3 -10 -1 -10 -9 0 -9 -6 -17 -12 -17 -7 -1 -26 -3 -43 -4 -16
-1 -52 -8 -78 -14 -45 -11 -50 -10 -67 11 -16 20 -27 23 -85 22 -37 -1 -78 -8
-92 -15 -22 -12 -24 -19 -21 -60 3 -46 2 -48 -39 -74 -37 -23 -41 -29 -29 -41
22 -22 34 -73 32 -143 -1 -42 -5 -66 -13 -68 -8 -3 -13 4 -13 16 0 12 -5 21
-11 21 -6 0 -8 9 -4 20 5 15 0 22 -19 30 -28 10 -66 64 -66 93 0 12 -8 17 -30
17 -20 0 -30 5 -30 15 0 20 -18 19 -22 -1 -3 -14 -7 -13 -29 5 -15 11 -29 18
-31 15 -3 -2 -3 7 -1 21 4 16 12 25 24 25 23 0 25 25 3 34 -31 12 -46 7 -39
-14 5 -15 2 -20 -13 -20 -12 0 -28 -14 -41 -36 -12 -19 -26 -32 -31 -29 -6 3
-17 0 -25 -7 -32 -29 -45 -39 -45 -33 0 3 -18 -4 -40 -15 -22 -11 -40 -24 -40
-28 0 -4 -18 -8 -39 -9 -28 -2 -41 2 -43 12 -3 13 -6 13 -31 0 -26 -13 -28
-13 -37 8 -17 41 -45 68 -63 61 -9 -3 -17 -11 -17 -18 0 -15 -105 -46 -158
-46 -23 0 -42 -4 -42 -10 0 -5 -7 -10 -15 -10 -8 0 -15 4 -15 9 0 5 -14 13
-31 16 -42 9 -89 53 -89 81 0 29 -35 51 -44 28 -10 -25 -7 -32 11 -30 12 0 19
-7 21 -22 2 -12 8 -20 13 -17 5 4 9 -1 9 -10 0 -22 -27 -30 -46 -14 -17 14
-82 21 -99 10 -5 -3 -13 -6 -17 -7 -5 -1 -11 -2 -14 -3 -4 0 0 -8 7 -17 12
-15 11 -16 -11 -9 -33 10 -43 20 -45 47 -1 13 -7 22 -14 21 -16 -4 -24 42 -12
65 21 39 14 52 -29 52 -29 0 -40 -4 -40 -15 0 -13 -3 -13 -20 -3 -17 11 -22
10 -29 -1 -5 -8 -7 -20 -4 -27 3 -8 -6 -19 -22 -26 -23 -10 -29 -9 -51 15 -23
25 -29 43 -26 80 3 24 87 25 100 0 11 -19 42 -11 42 12 0 9 5 13 10 10 6 -4
24 5 41 19 18 15 43 26 60 26 18 0 29 5 29 14 0 7 7 19 15 26 8 7 15 21 15 30
0 10 5 20 11 22 5 2 7 11 3 22 -5 13 -14 16 -32 13 -32 -6 -52 1 -52 19 0 8
-11 19 -25 26 -13 6 -22 15 -18 20 3 6 -9 8 -31 5 -20 -3 -36 -1 -36 4 0 13
-28 11 -32 -3 -3 -7 -14 -9 -31 -4 -28 7 -37 26 -13 26 8 0 18 5 21 11 13 20
-3 20 -39 -1 -21 -11 -42 -18 -47 -15 -16 11 -117 -24 -145 -50 -29 -27 -71
-32 -106 -14 -15 8 -27 8 -44 0 -13 -6 -35 -16 -49 -23 -13 -6 -22 -15 -19
-19 2 -5 -8 -15 -23 -23 -16 -7 -37 -23 -47 -35 -11 -12 -24 -21 -30 -21 -6 0
-26 -31 -44 -70 -18 -38 -37 -70 -42 -70 -6 0 -10 -8 -10 -18 0 -20 -28 -82
-36 -82 -3 0 -14 5 -25 10 -14 8 -19 7 -19 -1 0 -7 -10 -3 -22 9 -18 16 -27
18 -42 10 -16 -9 -24 -5 -46 21 -27 31 -50 40 -50 21 0 -5 -18 -10 -40 -10
-39 0 -40 0 -40 38 -1 31 -6 41 -39 63 -32 22 -46 26 -83 22 -25 -3 -45 -10
-46 -17 -8 -63 -15 -76 -30 -64 -12 11 -17 9 -30 -10 -8 -12 -24 -22 -36 -22
-33 0 -49 -15 -42 -38 4 -11 2 -23 -4 -27 -5 -3 -10 1 -10 9 0 25 -14 19 -45
-18 -16 -19 -33 -32 -39 -30 -6 2 -24 -7 -40 -21 -33 -28 -46 -31 -46 -12 0
15 -33 35 -69 42 -14 3 -32 12 -40 21 -15 15 -13 16 15 12 27 -4 30 -2 26 19
-2 13 -11 23 -19 23 -19 0 -63 40 -63 58 0 6 10 12 22 12 22 0 22 1 4 17 -13
13 -20 15 -23 6 -3 -8 -22 -13 -47 -13 -32 0 -48 -6 -66 -25 -13 -14 -29 -25
-37 -25 -7 0 -13 -4 -13 -10 0 -10 -21 -39 -57 -77 -13 -13 -23 -28 -23 -33 0
-11 -11 -13 -60 -11 -31 1 -37 -3 -53 -34 -12 -26 -14 -41 -7 -54 8 -16 5 -19
-24 -24 -19 -3 -50 -2 -70 3 -29 6 -38 5 -45 -9 -8 -12 -22 -15 -66 -14 -38 2
-57 -1 -61 -10 -2 -7 -17 -13 -32 -12 -22 0 -31 9 -49 45 -12 24 -34 57 -49
72 -24 26 -25 31 -14 58 7 17 16 30 20 30 4 0 12 19 19 42 7 24 22 63 35 87
20 39 29 46 86 66 36 13 79 29 96 36 28 11 36 10 58 -4 33 -22 45 -21 67 5 24
27 24 50 -1 73 -13 12 -20 31 -20 56 0 20 -5 39 -12 41 -8 3 -9 12 0 37 10 28
9 35 -8 54 -11 11 -20 32 -20 45 0 27 28 92 40 92 4 0 -9 17 -29 38 -20 21
-37 35 -39 30 -10 -24 -162 7 -162 34 0 4 -8 17 -17 27 -35 39 -41 49 -40 67
1 11 -4 18 -10 16 -16 -3 -17 10 -1 26 9 9 8 12 -5 12 -21 0 -23 38 -2 46 8 4
15 16 15 29 0 26 18 43 57 54 21 6 27 13 25 29 -2 12 0 22 5 22 14 -1 43 -27
36 -33 -3 -4 1 -9 10 -13 12 -4 16 -17 15 -43 -1 -42 8 -65 23 -55 14 8 76
-15 83 -31 6 -18 42 -20 52 -3 4 7 3 8 -4 4 -19 -12 -14 19 6 37 10 10 25 17
34 17 24 0 28 11 14 39 -13 27 -11 61 4 61 5 0 14 19 21 43 18 67 32 78 98 71
31 -4 64 -11 75 -16 28 -15 55 15 38 42 -6 11 -12 30 -12 43 0 25 -45 75 -57
64 -3 -4 -1 -7 5 -7 7 0 12 -11 12 -24 0 -17 -7 -25 -25 -28 -27 -6 -65 25
-46 37 16 10 -10 33 -31 27 -10 -2 -18 0 -18 6 0 5 -15 8 -32 6 -43 -5 -81 11
-93 39 -6 12 -20 26 -32 32 -12 5 -24 22 -27 37 -3 15 -12 28 -19 28 -8 0 -17
13 -20 29 -4 16 -18 40 -32 53 -15 13 -40 35 -56 51 -17 15 -36 27 -42 27 -7
0 -23 16 -36 35 -23 35 -23 36 -5 50 30 21 5 36 -65 39 -33 1 -61 -1 -61 -4 0
-15 -76 -36 -102 -29 -16 4 -30 3 -34 -2 -9 -15 -54 -11 -54 5 0 8 -10 18 -22
22 -13 3 -48 32 -79 64 -31 31 -63 60 -72 63 -10 4 -17 11 -17 17 0 5 -9 10
-19 10 -11 0 -23 4 -26 10 -8 13 -133 4 -151 -11 -11 -9 -19 -8 -34 6 -10 9
-23 14 -29 11 -6 -4 -20 3 -33 16 -18 18 -32 22 -75 21 -46 -1 -53 1 -53 17 0
14 -5 18 -17 13 -30 -10 -45 -26 -34 -33 16 -9 27 -160 12 -160 -6 0 -11 -7
-11 -15 0 -8 -7 -15 -15 -15 -9 0 -15 -9 -15 -25 0 -33 27 -32 60 3 24 27 25
27 57 11 38 -20 82 -69 76 -86 -6 -16 -30 -17 -35 -1 -3 7 -9 8 -18 3 -10 -6
-9 -10 7 -16 11 -4 23 -17 26 -29 5 -20 2 -22 -25 -18 -30 5 -30 5 -25 -35 4
-29 15 -48 39 -70 33 -29 33 -29 6 -23 -17 4 -32 1 -42 -10 -9 -8 -33 -18 -53
-21 -43 -7 -68 -32 -84 -85 -7 -21 -20 -38 -30 -41 -25 -7 -25 -49 0 -71 11
-10 17 -25 14 -36 -6 -22 -46 -34 -71 -22 -9 5 -32 12 -51 16 -27 5 -32 3 -27
-10 3 -9 6 -23 6 -31 0 -12 3 -13 14 -3 8 6 25 10 37 8 19 -2 23 -9 23 -43 1
-32 5 -40 19 -39 9 1 17 -2 17 -7 0 -5 -9 -9 -19 -9 -11 0 -21 -6 -24 -12 -3
-10 -7 -10 -20 1 -10 7 -41 13 -74 14 -52 0 -62 -3 -92 -31 -18 -18 -37 -32
-42 -32 -5 0 -9 -5 -9 -11 0 -5 5 -7 11 -3 7 4 7 -1 -1 -16 -7 -12 -8 -20 -2
-16 12 7 25 -9 41 -56 14 -44 8 -60 -22 -56 -19 3 -22 -1 -19 -32 2 -22 11
-41 25 -52 19 -15 19 -18 5 -18 -10 0 -18 -7 -18 -15 0 -17 -42 -30 -65 -21
-9 3 -24 0 -35 -6 -25 -16 -35 -5 -20 21 13 25 5 27 -16 6 -24 -24 -34 -18
-34 21 0 27 4 35 14 31 8 -3 17 0 19 8 3 7 19 16 36 20 28 6 30 9 24 38 -3 18
-12 42 -19 54 -12 19 -17 21 -33 11 -11 -6 -17 -17 -15 -23 6 -14 -12 -30 -42
-39 -17 -5 -23 -2 -27 15 -5 17 -9 20 -19 12 -7 -6 -30 -15 -50 -21 -29 -8
-38 -7 -42 4 -3 7 4 18 14 24 24 13 27 32 4 23 -14 -5 -16 -2 -11 18 5 19 1
26 -18 35 -20 10 -27 9 -41 -7 -9 -10 -14 -27 -11 -38 2 -11 -5 -31 -19 -47
-13 -16 -23 -41 -24 -55 0 -31 -28 -59 -59 -59 -19 0 -20 -3 -11 -20 15 -27
-5 -67 -25 -50 -9 7 -15 8 -19 1 -4 -6 -12 -8 -19 -5 -7 2 -22 -4 -32 -16 -10
-11 -24 -20 -32 -20 -20 0 -16 57 7 80 11 11 17 26 13 35 -6 18 15 65 29 65 5
0 7 -4 3 -9 -10 -18 13 -21 30 -5 12 13 13 19 4 31 -7 8 -15 10 -18 4 -3 -5
-17 -9 -31 -9 -14 -1 -48 -4 -76 -7 -47 -7 -52 -5 -71 19 -12 14 -26 26 -32
26 -7 0 -16 10 -21 23 -5 12 -9 17 -9 10 -1 -16 -32 -5 -63 23 -13 11 -32 23
-41 27 -9 3 -17 11 -17 17 0 5 -7 10 -16 10 -11 0 -14 6 -8 22 8 25 64 85 64
69 0 -6 17 1 37 15 25 17 40 21 47 14 5 -5 25 -10 44 -10 l34 0 -42 40 c-31
29 -40 44 -32 52 6 6 8 17 5 24 -3 9 3 14 18 15 19 1 16 3 -11 11 -58 15 -94
14 -110 -3 -15 -15 -18 -23 -26 -63 -2 -11 -10 -26 -18 -34 -13 -13 -17 -13
-30 1 -9 9 -16 20 -16 25 0 5 -11 17 -25 26 -25 16 -34 46 -15 46 31 0 -8 52
-53 70 -18 7 -19 9 -4 9 10 1 15 6 12 11 -4 6 -11 8 -16 5 -15 -10 -48 5 -43
19 4 10 -2 12 -20 9 -15 -3 -32 0 -40 6 -10 9 -15 8 -20 -4 -4 -11 1 -15 19
-15 17 0 23 -4 19 -14 -3 -8 2 -17 13 -20 10 -3 1 -4 -19 -3 -21 2 -38 -1 -38
-5 0 -18 -51 -7 -73 16 -13 13 -39 27 -58 31 -19 3 -41 9 -50 11 -11 3 -18 -3
-22 -16 -3 -14 -13 -20 -32 -20 -15 0 -24 -4 -20 -10 4 -6 -6 -10 -24 -10 -16
0 -31 5 -33 11 -4 13 -58 -9 -58 -23 0 -5 -4 -6 -10 -3 -6 4 -10 -10 -10 -35
0 -27 -4 -39 -11 -34 -11 7 -59 -14 -71 -31 -4 -5 -8 1 -9 15 0 20 -3 17 -14
-15 -12 -38 -13 -39 -14 -10 0 17 4 59 8 95 5 36 16 124 25 195 9 72 20 164
26 205 5 41 12 109 15 150 3 41 15 149 25 240 11 91 29 251 40 355 12 105 30
267 40 360 11 94 28 258 40 365 11 107 35 335 54 505 19 171 46 423 61 560 14
138 33 306 42 375 8 69 19 152 23 185 l7 60 2 -65 c1 -36 5 -60 9 -55 4 6 21
12 37 13 17 2 32 8 33 13 6 16 79 11 86 -6 3 -8 10 -15 16 -15 5 0 10 7 10 15
0 11 11 15 40 15 30 0 40 -4 40 -16 0 -14 10 -15 83 -9 55 5 91 14 109 26 14
11 31 19 36 19 6 0 12 5 14 10 2 6 39 14 83 20 121 14 158 22 147 29 -29 18
62 81 118 81 23 0 48 6 56 15 9 8 25 15 37 16 52 2 113 31 102 48 -10 17 24
31 94 40 56 7 83 17 127 46 l56 37 -3 67 c-4 87 22 150 65 158 26 5 27 7 11
13 -11 4 14 5 55 3 41 -3 99 -13 128 -24 32 -11 79 -19 118 -19 58 0 69 3 95
27 16 16 29 34 29 40 0 7 9 13 20 13 14 0 20 7 20 24 0 15 12 34 33 50 17 15
38 31 45 37 7 5 27 15 45 21 17 7 46 24 62 40 17 15 35 28 40 28 6 0 16 9 23
20 7 11 22 20 34 20 13 0 50 29 100 80 44 44 84 80 89 80 5 0 9 4 9 9 0 5 35
21 77 35 59 20 79 23 84 14 6 -9 14 -6 30 11 17 18 20 31 16 67 -3 32 1 55 14
81 11 21 19 52 19 69 0 18 5 34 12 36 7 3 12 27 12 61 1 32 6 61 12 65 6 4 11
24 12 46 1 21 8 49 17 62 8 13 15 31 15 39 0 18 8 27 67 73 23 18 45 43 49 55
3 12 14 31 24 42 17 20 33 68 67 200 15 58 22 71 41 73 18 3 22 10 22 43 0 21
5 39 10 39 6 0 10 33 10 80 l0 80 40 0 40 0 0 78 c0 73 15 124 27 95 2 -8 22
-13 44 -13 l39 0 0 63 c0 37 5 69 13 76 10 11 9 14 -1 18 -16 6 26 40 68 54
19 7 30 18 30 29 0 11 16 31 36 47 20 15 31 29 25 31 -14 5 -15 32 -1 32 6 0
15 11 22 24 6 14 20 26 31 28 12 2 25 15 31 33 20 55 36 75 60 75 26 0 61 33
52 49 -4 6 2 16 14 23 11 7 20 21 20 30 0 9 6 21 13 25 7 4 23 25 37 45 13 20
28 35 31 32 4 -2 17 9 28 25 12 17 32 33 44 37 12 3 36 17 54 30 28 22 32 22
36 6 2 -11 8 -1 17 26 7 23 18 42 24 42 7 0 20 14 29 30 10 17 24 30 31 30 8
0 21 11 30 25 9 14 22 25 29 25 7 0 27 16 45 35 18 19 52 44 75 55 23 11 56
28 72 38 17 10 55 27 85 37 30 11 62 25 71 32 8 7 23 13 32 13 9 0 17 6 17 14
0 10 17 16 58 21 31 3 88 10 127 14 51 6 78 4 101 -5 17 -7 34 -11 37 -8 3 3
27 -6 54 -19 37 -19 51 -33 61 -61 7 -20 20 -36 28 -36 8 0 14 -7 14 -15 0
-11 11 -15 40 -15 33 0 40 -3 40 -20 0 -16 7 -20 35 -20 42 0 95 42 95 75 0
13 21 42 55 73 47 45 61 52 95 52 33 0 40 3 40 20 0 17 7 20 40 20 22 0 40 -4
40 -9 0 -4 11 -6 25 -3 22 4 25 10 25 43 0 28 4 39 15 39 9 0 15 -9 15 -25 0
-22 4 -25 38 -25 25 0 45 7 55 18 21 23 21 32 2 32 -11 0 -15 11 -15 40 0 22
-4 40 -9 40 -17 0 -71 61 -71 80 0 19 54 80 71 80 5 0 9 7 9 15 0 11 11 15 39
15 36 0 40 3 44 28 3 19 4 14 6 -15 1 -42 2 -43 36 -43 33 0 35 -2 35 -32 l1
-33 19 25 c11 14 29 35 40 47 16 18 20 36 20 87 0 42 -4 66 -12 69 -10 4 -10
7 0 18 6 7 12 23 12 36 0 18 6 23 25 23 23 0 25 4 25 40 l0 40 -3532 0 c-3198
-1 -3534 -2 -3547 -16z m389 -1020 c0 -8 -5 -12 -10 -9 -6 4 -8 11 -5 16 9 14
15 11 15 -7z m140 -309 c0 -8 5 -15 12 -15 9 0 9 -3 1 -11 -14 -14 -48 14 -38
31 9 15 25 12 25 -5z m-77 -850 c-3 -9 -8 -14 -10 -11 -3 3 -2 9 2 15 9 16 15
13 8 -4z m20 -85 c-7 -28 -13 -25 -13 6 0 14 4 23 9 20 5 -3 7 -15 4 -26z
m-55 -10 c-3 -16 -1 -30 4 -30 4 0 8 8 8 17 0 14 2 15 13 4 10 -10 9 -14 -5
-22 -22 -12 -23 -42 -3 -59 19 -16 19 -34 0 -50 -9 -7 -13 -21 -10 -31 5 -15
1 -19 -19 -19 -16 0 -26 -6 -26 -15 0 -27 -20 -15 -21 13 -1 27 -1 27 -10 -5
-9 -32 -25 -50 -36 -39 -3 3 -2 11 3 18 6 7 16 31 23 53 23 73 73 195 80 195
2 0 1 -13 -1 -30z m-64 -526 c24 -9 19 -24 -8 -24 -28 0 -43 16 -24 23 7 3 14
6 15 6 1 1 8 -2 17 -5z m-141 -19 c-3 -9 -8 -14 -10 -11 -3 3 -2 9 2 15 9 16
15 13 8 -4z m-84 -224 c-6 -18 -13 -30 -15 -28 -2 2 1 18 7 36 6 18 13 30 15
28 2 -2 -1 -18 -7 -36z m-246 -711 c-3 -12 -8 -19 -11 -16 -5 6 5 36 12 36 2
0 2 -9 -1 -20z m-33 -111 c-13 -32 -5 -53 10 -29 11 18 12 13 11 -60 -2 -76
-10 -110 -27 -110 -8 0 -14 -5 -14 -10 0 -6 -9 -20 -20 -32 -18 -19 -20 -20
-20 -4 0 9 -4 14 -10 11 -5 -3 -10 -14 -10 -24 0 -10 -7 -18 -15 -18 -8 0 -15
2 -15 4 0 14 93 280 101 288 5 5 10 18 10 30 1 17 2 18 6 2 3 -10 -1 -32 -7
-48z m2099 50 c29 -10 31 -12 14 -24 -30 -20 -64 -25 -69 -10 -4 10 11 40 22
45 1 0 15 -5 33 -11z m-1122 -81 c-3 -8 -6 -5 -6 6 -1 11 2 17 5 13 3 -3 4
-12 1 -19z m1213 7 c0 -8 -4 -15 -10 -15 -5 0 -10 -9 -10 -20 0 -21 -8 -24
-34 -14 -20 8 -21 34 -2 34 8 0 16 7 20 15 3 8 12 15 21 15 8 0 15 -7 15 -15z
m-1223 -67 c-3 -7 -5 -2 -5 12 0 14 2 19 5 13 2 -7 2 -19 0 -25z m-10 -60 c-3
-7 -5 -2 -5 12 0 14 2 19 5 13 2 -7 2 -19 0 -25z m-397 -306 c14 -2 39 -10 55
-17 17 -7 42 -16 58 -19 21 -5 27 -12 27 -34 0 -23 7 -32 37 -46 27 -13 38
-14 43 -5 5 7 24 10 49 7 40 -3 41 -3 42 27 1 29 1 29 9 5 8 -24 8 -24 9 -2 1
12 6 22 12 22 6 0 8 -8 5 -17 -3 -10 -10 -58 -16 -108 -6 -49 -23 -164 -37
-255 -14 -91 -31 -208 -38 -260 -29 -210 -68 -455 -74 -462 -7 -8 -241 55
-270 74 -17 10 -25 10 -41 0 -35 -21 -50 -15 -50 22 0 42 34 382 60 608 17
143 50 352 78 498 l7 35 5 -35 c4 -28 10 -36 30 -38z m-194 -1347 c18 -14 37
-25 42 -25 20 0 18 -32 -19 -250 -22 -124 -48 -277 -59 -340 -10 -63 -37 -218
-59 -345 -22 -126 -47 -273 -56 -325 -15 -88 -19 -98 -58 -139 -43 -44 -146
-126 -152 -119 -3 4 -50 294 -64 400 -6 43 -16 164 -22 270 -6 106 -13 195
-14 197 -2 2 -7 -10 -11 -25 -7 -29 13 -804 22 -836 3 -11 -7 -22 -33 -35 -48
-23 -54 -52 -18 -85 l26 -24 -29 -65 c-17 -35 -33 -73 -37 -84 -6 -17 -10 -15
-26 20 -32 72 -100 148 -124 139 -8 -4 -15 -2 -15 4 0 5 -12 13 -27 17 -20 5
-31 2 -40 -11 -12 -16 -13 -16 -13 -1 0 11 -8 17 -25 17 -20 0 -25 5 -25 25 0
16 -6 25 -15 25 -18 0 -21 -50 -3 -68 7 -7 8 -12 3 -12 -4 0 -26 18 -47 40
-22 22 -41 40 -43 40 -2 0 -5 -8 -8 -17 -3 -14 -7 -12 -16 11 -10 25 -8 37 16
90 111 247 382 725 551 971 42 61 99 155 127 211 28 55 85 157 126 227 81 139
89 144 145 102z m331 -89 c5 -5 -8 -100 -52 -371 -36 -222 -49 -303 -81 -513
l-28 -184 -44 -30 -45 -31 7 49 c13 97 136 1076 136 1086 0 10 97 5 107 -6z
m-3197 -322 c0 -14 -3 -14 -15 -4 -8 7 -15 14 -15 16 0 2 7 4 15 4 8 0 15 -7
15 -16z m1120 -794 c0 -5 -4 -10 -9 -10 -6 0 -13 5 -16 10 -3 6 1 10 9 10 9 0
16 -4 16 -10z m1884 -147 c-13 -76 -37 -226 -54 -333 -17 -107 -44 -265 -60
-350 -15 -85 -31 -183 -35 -217 -7 -59 -33 -163 -34 -135 -1 7 -5 10 -11 7
-14 -8 -13 23 5 135 8 52 22 154 30 225 25 206 33 258 42 264 5 3 17 28 27 55
18 48 18 50 1 63 -18 13 -18 19 4 190 22 176 23 178 54 205 18 15 37 27 42 28
7 0 2 -51 -11 -137z m-333 -190 c-4 -21 -12 -38 -19 -37 -6 1 -22 2 -34 3 -21
1 -20 3 12 36 19 19 37 35 40 35 4 0 4 -17 1 -37z m-1793 -66 c54 -14 61 -19
74 -48 16 -35 46 -46 147 -53 79 -6 108 -22 137 -77 17 -33 67 -43 105 -21 34
19 55 11 63 -23 9 -33 8 -34 -36 -37 -31 -3 -35 -6 -34 -31 1 -32 20 -40 65
-27 26 7 37 6 48 -5 8 -8 17 -15 21 -15 4 0 24 -16 44 -35 20 -19 41 -35 47
-35 16 0 18 -33 5 -61 -15 -31 -48 -43 -65 -23 -6 8 -14 12 -18 9 -4 -2 -25 3
-47 11 -21 8 -47 17 -56 21 -22 7 -23 20 -3 39 16 17 21 54 6 54 -5 0 -11 -7
-15 -15 -6 -17 -61 -21 -72 -4 -4 8 -9 8 -17 0 -18 -18 -45 -13 -58 10 -15 28
-66 79 -82 81 -7 0 -16 2 -22 3 -5 2 -18 3 -27 4 -10 0 -18 7 -18 15 0 20 -53
45 -84 39 -14 -3 -26 -12 -26 -20 0 -8 -6 -13 -12 -10 -45 19 -68 33 -68 42 0
6 -14 16 -31 24 -33 14 -79 56 -79 71 0 6 -18 26 -40 46 -66 60 -53 79 52 78
40 0 83 -3 96 -7z m1172 -77 c0 -5 -4 -10 -10 -10 -5 0 -10 5 -10 10 0 6 5 10
10 10 6 0 10 -4 10 -10z m474 -52 c27 -13 27 -15 21 -68 -7 -66 -38 -196 -48
-206 -4 -4 -5 6 -1 22 3 16 1 40 -5 54 -10 23 -11 22 -5 -10 l5 -35 -15 28
c-18 34 -46 62 -46 48 0 -6 -6 -11 -13 -11 -7 0 -18 -12 -25 -27 -10 -26 -11
-26 -6 -3 11 50 87 220 98 220 7 0 25 -6 40 -12z m-37 -380 c-3 -8 -6 -5 -6 6
-1 11 2 17 5 13 3 -3 4 -12 1 -19z m4504 -54 c9 -11 7 -15 -6 -20 -9 -4 -21
-2 -28 5 -6 6 -7 11 -2 11 5 0 0 6 -10 14 -18 13 -18 14 7 9 15 -3 33 -11 39
-19z m-5944 -111 c10 -21 10 -28 0 -35 -15 -9 -62 35 -53 51 13 20 41 11 53
-16z m2503 -142 c-16 -109 -31 -168 -23 -91 3 30 9 73 14 95 5 22 9 56 10 75
0 19 3 29 6 21 3 -8 0 -53 -7 -100z m7657 -3 c-3 -8 -6 -5 -6 6 -1 11 2 17 5
13 3 -3 4 -12 1 -19z m1630 6 c-3 -3 -12 -4 -19 -1 -8 3 -5 6 6 6 11 1 17 -2
13 -5z m666 -1 c-13 -2 -33 -2 -45 0 -13 2 -3 4 22 4 25 0 35 -2 23 -4z
m-8573 -103 c0 -5 -2 -10 -4 -10 -3 0 -8 5 -11 10 -3 6 -1 10 4 10 6 0 11 -4
11 -10z m7936 -30 c8 0 14 -4 14 -10 0 -13 -11 -12 -31 3 -9 7 -13 19 -10 27
4 12 6 12 9 -2 2 -10 10 -18 18 -18z m681 -47 c8 -22 -28 -43 -70 -42 -35 0
-38 2 -19 9 12 5 22 14 22 20 0 11 39 30 54 26 6 -1 11 -7 13 -13z m-12194
-60 c38 -14 51 -15 54 -5 9 25 38 11 55 -26 23 -51 32 -119 33 -245 0 -123 3
-127 76 -127 38 0 48 -4 56 -23 9 -19 8 -26 -8 -35 -10 -7 -28 -12 -38 -12
-11 0 -24 -8 -30 -17 -8 -15 -12 -16 -22 -5 -19 18 -129 16 -129 -3 0 -21 -10
-18 -45 10 -19 16 -26 28 -19 33 11 8 12 51 0 70 -4 7 -19 12 -34 12 -29 0
-106 56 -97 70 3 5 -7 10 -22 12 -26 3 -28 7 -28 47 -1 29 -6 47 -18 56 -9 7
-17 20 -17 31 0 21 48 74 67 74 7 0 13 8 13 18 0 17 74 82 93 82 5 0 32 -8 60
-17z m2156 -105 c-13 -105 -18 -117 -12 -33 5 72 9 95 17 95 1 0 -1 -28 -5
-62z m1552 42 c22 0 7 -41 -21 -55 -37 -19 -40 -19 -40 6 0 32 20 61 37 55 8
-3 19 -6 24 -6z m8426 -50 c26 0 33 -4 33 -20 0 -18 11 -25 33 -21 5 1 7 -4 5
-11 -3 -7 -20 -14 -39 -15 -19 -1 -40 -2 -46 -2 -7 -1 -13 -6 -13 -12 0 -6 -6
-17 -14 -25 -13 -12 -20 -9 -52 21 -20 19 -41 35 -45 35 -5 0 -9 6 -9 13 0 24
86 62 105 46 5 -5 24 -9 42 -9z m-11767 -361 c0 -25 -33 -22 -38 4 -2 12 3 17
17 17 15 0 21 -6 21 -21z m4495 -14 c28 -1 50 -6 50 -11 0 -5 -10 -22 -23 -38
l-22 -29 -66 11 c-37 6 -69 13 -71 16 -3 3 0 19 7 36 12 28 16 30 44 24 17 -4
54 -8 81 -9z m6053 -10 c28 -33 28 -36 -7 -33 -22 2 -27 6 -23 20 2 10 -1 18
-7 18 -7 0 -9 5 -6 10 10 16 20 12 43 -15z m-8683 5 c3 -5 -1 -10 -9 -10 -9 0
-16 5 -16 10 0 6 4 10 9 10 6 0 13 -4 16 -10z m-65 -10 c0 -5 -8 -10 -17 -10
-15 0 -16 2 -3 10 19 12 20 12 20 0z m-1810 -20 c0 -4 -6 -13 -14 -19 -11 -9
-15 -8 -20 5 -3 9 -4 20 -1 24 6 10 35 2 35 -10z m10585 -40 c3 -5 1 -10 -4
-10 -6 0 -11 5 -11 10 0 6 2 10 4 10 3 0 8 -4 11 -10z m-55 -20 c0 -18 -32
-60 -45 -60 -6 0 -20 9 -29 19 -16 18 -16 20 6 35 25 18 68 21 68 6z m-10340
-20 c0 -5 -4 -10 -10 -10 -5 0 -10 5 -10 10 0 6 5 10 10 10 6 0 10 -4 10 -10z
m-52 -9 c11 -7 11 -9 -2 -14 -9 -4 -16 -15 -16 -26 0 -11 -10 -26 -22 -32 -20
-11 -20 -13 -5 -24 9 -7 17 -22 17 -34 0 -12 4 -30 9 -40 16 -29 1 -59 -40
-81 -22 -11 -46 -20 -53 -20 -8 0 -16 -7 -20 -15 -12 -32 -25 -12 -29 48 -3
34 -8 74 -12 89 -6 24 -5 26 14 21 16 -4 21 -1 21 14 0 32 30 83 49 83 10 0
26 9 37 19 21 22 33 25 52 12z m11608 -31 c24 0 64 -47 64 -75 0 -44 -23 -57
-96 -56 -46 0 -70 -4 -81 -14 -8 -8 -23 -15 -34 -15 -10 0 -19 -4 -19 -9 0
-16 -40 1 -51 21 -7 12 -18 18 -28 15 -14 -3 -17 1 -13 19 3 17 13 24 43 29
21 4 41 5 43 3 3 -1 22 13 43 33 21 20 51 39 66 43 15 4 31 14 35 24 6 16 7
16 10 0 2 -10 10 -18 18 -18z m-12106 -11 c0 -20 -55 -58 -75 -52 -11 3 -22 7
-24 9 -8 7 22 34 39 34 10 0 23 7 30 15 13 15 30 12 30 -6z m12192 -14 c0 -5
-5 -11 -11 -13 -6 -2 -11 4 -11 13 0 9 5 15 11 13 6 -2 11 -8 11 -13z m-12132
-7 c0 -23 -16 -39 -33 -32 -17 6 -22 25 -10 37 11 12 43 8 43 -5z m10497 -9
c16 -16 -25 -89 -49 -89 -10 0 -21 -1 -25 -2 -12 -4 -14 70 -3 77 5 3 10 1 10
-4 0 -19 17 -12 23 9 6 22 27 26 44 9z m-4034 -6 c-7 -2 -19 -2 -25 0 -7 3 -2
5 12 5 14 0 19 -2 13 -5z m-6659 -18 c9 -23 -16 -56 -39 -53 -39 6 -25 68 15
68 10 0 21 -7 24 -15z m8893 -71 c-3 -3 -12 -4 -19 -1 -8 3 -5 6 6 6 11 1 17
-2 13 -5z m33 -85 c0 -13 -7 -19 -24 -19 -33 0 -42 17 -20 41 20 22 44 10 44
-22z m-1980 21 c0 -5 -5 -10 -11 -10 -5 0 -7 5 -4 10 3 6 8 10 11 10 2 0 4 -4
4 -10z m6030 -40 c0 -5 -4 -10 -10 -10 -5 0 -10 5 -10 10 0 6 5 10 10 10 6 0
10 -4 10 -10z m-10494 -392 c-3 -13 -6 -31 -6 -40 0 -11 -8 -18 -19 -18 -11 0
-23 -4 -26 -10 -3 -5 -17 -10 -29 -10 -13 0 -34 -8 -47 -18 -13 -10 -36 -23
-51 -29 -20 -9 -29 -22 -35 -55 -8 -42 -10 -43 -63 -57 -60 -16 -70 -24 -70
-60 0 -13 -2 -22 -5 -20 -5 5 15 261 21 268 3 3 10 -4 18 -14 12 -17 18 -18
52 -7 20 6 41 9 45 6 5 -3 25 10 45 28 36 33 93 55 148 57 25 1 28 -2 22 -21z
m349 -31 c39 -1 76 -6 83 -10 21 -14 3 -27 -28 -20 -49 9 -119 -17 -151 -58
-21 -27 -40 -39 -66 -43 -73 -12 -87 -12 -91 5 -4 24 50 109 69 109 9 0 22 7
30 16 9 12 22 14 48 9 20 -3 68 -7 106 -8z m2873 -87 c7 -11 9 -20 4 -20 -4 0
-12 -10 -17 -22 -8 -19 -18 -23 -57 -24 -36 -1 -48 3 -48 14 0 9 7 13 20 9 15
-4 27 4 46 29 31 40 35 41 52 14z m-5050 -75 c-13 -19 -24 -30 -26 -25 -3 7
36 60 45 60 2 0 -7 -16 -19 -35z m-61 -19 c-3 -7 -1 -18 5 -24 6 -6 0 -23 -20
-51 -18 -25 -32 -36 -35 -29 -2 7 2 21 11 31 10 11 11 17 4 17 -7 0 -12 5 -12
11 0 6 7 9 14 6 10 -4 13 -1 9 9 -3 7 -10 14 -17 14 -6 0 -5 4 4 9 8 6 18 7
22 5 4 -3 8 0 8 5 0 6 3 11 6 11 3 0 4 -6 1 -14z m6983 -12 c0 -7 -65 -44 -77
-44 -7 0 -13 7 -13 15 0 8 5 15 11 15 6 0 9 6 6 13 -3 9 6 11 34 9 22 -2 39
-6 39 -8z m1380 -29 c0 -2 -10 -9 -22 -15 -22 -11 -22 -10 -4 4 21 17 26 19
26 11z m-40 -43 c0 -5 -8 -16 -18 -25 -18 -16 -19 -16 -16 5 1 13 3 24 3 26 2
6 31 1 31 -6z m-8396 -60 c-10 -14 -25 -35 -34 -44 -16 -17 -17 -17 -14 4 1
13 3 30 3 38 1 12 3 12 10 2 6 -10 12 -6 26 14 17 26 17 27 0 20 -15 -6 -16
-4 -5 9 12 15 14 15 23 0 6 -11 3 -25 -9 -43z m2023 21 c-3 -3 -11 -2 -17 2
-8 5 -7 11 2 22 12 15 13 14 16 -1 2 -10 1 -20 -1 -23z m-1877 -53 c-9 -22 -9
-21 -4 10 6 31 5 33 -10 21 -21 -18 -21 -3 2 22 17 19 17 19 20 -5 2 -13 -2
-35 -8 -48z m8280 65 c0 -3 -12 -18 -26 -33 l-26 -27 18 33 c16 28 34 42 34
27z m-6819 -98 c-1 -34 -6 -76 -11 -92 -7 -24 -9 -16 -5 35 2 36 4 80 4 99 1
19 4 31 7 28 4 -4 6 -35 5 -70z m-1519 36 c-52 -45 -62 -52 -84 -63 -18 -9
-16 -5 8 17 45 40 77 63 88 63 5 0 0 -8 -12 -17z m6967 -33 c0 -10 -3 -8 -9 5
-12 27 -12 43 0 25 5 -8 9 -22 9 -30z m-42 -2 c-3 -7 -5 -2 -5 12 0 14 2 19 5
13 2 -7 2 -19 0 -25z m1723 -3 c-14 -8 -29 -14 -35 -14 -5 0 1 6 15 14 14 8
30 14 35 14 6 0 -1 -6 -15 -14z m146 -13 c-4 -3 -14 2 -24 12 -16 18 -16 18 6
6 13 -6 21 -14 18 -18z m-8746 -7 c0 -8 -4 -15 -10 -15 -5 0 -7 7 -4 15 4 8 8
15 10 15 2 0 4 -7 4 -15z m1487 -7 c-3 -8 -6 -5 -6 6 -1 11 2 17 5 13 3 -3 4
-12 1 -19z m5429 -75 c-4 -4 -36 73 -35 85 0 4 9 -13 20 -37 11 -24 18 -46 15
-48z m-216 11 c-5 -19 -11 -39 -15 -42 -6 -6 0 32 11 66 8 27 11 10 4 -24z
m1957 -26 c-2 -13 -4 -5 -4 17 -1 22 1 32 4 23 2 -10 2 -28 0 -40z m-2260 20
c-3 -8 -6 -5 -6 6 -1 11 2 17 5 13 3 -3 4 -12 1 -19z m356 -9 c3 6 5 7 4 1 -2
-7 -7 -10 -12 -9 -6 2 -13 -10 -16 -27 -5 -22 -6 -17 -6 18 1 42 3 45 13 26 7
-13 13 -17 17 -9z m142 1 c3 -5 1 -10 -4 -10 -6 0 -11 5 -11 10 0 6 2 10 4 10
3 0 8 -4 11 -10z m1302 -22 c-3 -7 -5 -2 -5 12 0 14 2 19 5 13 2 -7 2 -19 0
-25z m-1783 -28 l7 -25 -15 25 c-17 28 -21 50 -7 35 5 -6 12 -21 15 -35z m569
10 c3 -11 2 -18 -3 -15 -4 3 -10 14 -13 25 -3 11 -2 18 3 15 4 -3 10 -14 13
-25z m1747 -16 c0 -8 -4 -12 -10 -9 -5 3 -10 13 -10 21 0 8 5 12 10 9 6 -3 10
-13 10 -21z m-2341 -44 c0 -10 -3 -8 -9 5 -12 27 -12 43 0 25 5 -8 9 -22 9
-30z m1768 18 c-3 -8 -6 -5 -6 6 -1 11 2 17 5 13 3 -3 4 -12 1 -19z m-393 -14
c3 -8 2 -12 -4 -9 -6 3 -10 10 -10 16 0 14 7 11 14 -7z m903 -16 c-3 -8 -6 -5
-6 6 -1 11 2 17 5 13 3 -3 4 -12 1 -19z m-2130 -64 c-3 -3 -12 -4 -19 -1 -8 3
-5 6 6 6 11 1 17 -2 13 -5z m-43 -36 c-3 -4 -9 -8 -15 -8 -5 0 -9 4 -9 8 0 5
7 9 15 9 8 0 12 -4 9 -9z"/>
<path d="M3511 9594 c0 -11 3 -14 6 -6 3 7 2 16 -1 19 -3 4 -6 -2 -5 -13z"/>
<path d="M3505 9557 c-4 -10 -5 -21 -1 -24 10 -10 18 4 13 24 -4 17 -4 17 -12
0z"/>
<path d="M11970 11685 c-8 -9 -30 -15 -56 -15 l-44 0 0 -40 0 -40 -55 0 -55 0
0 -120 0 -120 40 0 40 0 0 -40 c0 -22 -4 -40 -10 -40 -5 0 -10 -18 -10 -40 0
-22 5 -40 10 -40 6 0 10 -18 10 -40 0 -22 2 -40 4 -40 3 0 22 18 44 40 21 22
44 40 50 40 7 0 12 -16 12 -40 0 -38 -2 -40 -30 -40 -28 0 -30 -2 -30 -40 0
-30 -7 -47 -25 -66 -17 -17 -25 -36 -25 -59 0 -25 -4 -35 -16 -35 -9 0 -18 -9
-21 -20 -3 -13 -14 -20 -28 -20 -18 0 -22 -4 -18 -20 4 -14 0 -20 -11 -20 -13
0 -15 9 -9 60 4 46 3 60 -8 63 -122 35 -127 38 -137 66 -6 16 -24 39 -41 52
-24 18 -31 30 -31 57 0 38 -16 59 -51 64 -16 2 -25 11 -27 26 -3 20 -9 22 -56
22 -72 0 -86 17 -96 117 -4 43 -8 66 -9 51 -1 -26 -4 -28 -40 -28 -25 0 -41
-5 -45 -15 -3 -8 -10 -15 -17 -15 -6 0 -18 -8 -27 -19 -13 -14 -27 -17 -64
-14 -45 5 -48 7 -48 34 0 27 -3 29 -39 29 l-40 0 -3 -137 c-4 -187 -5 -183 43
-183 28 0 39 -4 39 -15 0 -9 -9 -15 -25 -15 -14 0 -25 -4 -25 -9 0 -5 11 -18
25 -29 23 -19 25 -26 25 -111 0 -74 -3 -91 -15 -91 -12 0 -15 -20 -15 -120 0
-113 1 -120 20 -120 17 0 20 -7 20 -40 0 -33 -3 -40 -20 -40 -17 0 -20 -7 -20
-40 0 -29 4 -40 15 -40 10 0 15 -10 15 -30 0 -23 4 -30 20 -30 22 0 27 15 8
26 -21 13 23 22 80 16 35 -3 52 -1 52 7 0 6 6 11 13 11 12 0 37 -44 37 -67 0
-7 9 -13 20 -13 17 0 20 -6 19 -42 -1 -24 -3 -35 -6 -25 -3 12 -15 17 -43 17
-21 0 -40 5 -42 11 -7 20 -47 -8 -41 -29 3 -13 -5 -22 -30 -34 -25 -12 -36
-25 -41 -48 -4 -20 -13 -34 -26 -37 -11 -3 -20 -9 -20 -13 0 -5 -18 -11 -40
-15 -27 -5 -50 -18 -72 -41 -18 -19 -41 -34 -52 -34 -11 0 -34 -16 -52 -36
-18 -20 -37 -33 -42 -30 -6 3 -15 0 -21 -8 -9 -11 -8 -17 4 -29 13 -14 13 -19
0 -51 -9 -20 -22 -36 -30 -36 -8 0 -15 -7 -15 -15 0 -17 -49 -45 -79 -45 -11
0 -30 -13 -42 -29 -12 -16 -32 -32 -45 -35 -13 -4 -24 -13 -24 -21 0 -9 -9
-15 -21 -15 -11 0 -23 -8 -26 -17 -2 -10 -23 -28 -46 -39 -23 -12 -43 -29 -43
-38 -2 -13 -1 -13 3 -1 2 8 11 15 19 15 11 0 14 -17 14 -80 0 -44 -4 -80 -9
-80 -5 0 -12 -35 -16 -77 -5 -52 -15 -93 -31 -123 -13 -25 -24 -50 -24 -56 0
-18 36 -45 52 -39 8 3 21 -1 28 -10 7 -8 8 -15 2 -15 -5 0 -8 -8 -5 -18 2 -10
-3 -24 -11 -31 -21 -18 -20 -29 8 -65 32 -42 25 -85 -21 -131 -53 -53 -108
-60 -120 -15 -3 13 -14 20 -28 20 -19 0 -24 -7 -30 -38 -4 -26 -15 -43 -35
-57 -33 -22 -36 -35 -18 -64 9 -15 9 -25 1 -43 -9 -18 -12 -19 -12 -5 -1 26
-20 21 -31 -9 -14 -36 -13 -41 10 -47 49 -13 7 -107 -47 -107 -43 0 -61 15
-46 38 7 12 8 24 2 33 -5 8 -9 21 -9 30 0 9 -16 34 -35 55 -19 21 -35 44 -35
51 0 7 -4 13 -9 13 -6 0 -16 12 -23 28 -11 22 -21 28 -56 30 -25 2 -42 -1 -42
-7 0 -6 -18 -11 -40 -11 l-39 0 -3 57 c-3 52 -6 59 -36 80 -18 12 -39 20 -47
17 -7 -3 -28 3 -47 13 l-33 18 28 3 c32 4 31 1 10 43 -24 49 -42 64 -56 50 -6
-6 -19 -11 -30 -11 -10 0 -25 -7 -33 -15 -15 -15 -44 -19 -92 -15 -26 2 -62
-30 -62 -54 0 -16 -64 -41 -79 -32 -5 4 -12 2 -16 -4 -8 -13 -82 -13 -90 0
-10 15 -35 12 -35 -5 0 -18 -12 -19 -27 -4 -15 15 -51 -5 -55 -32 -3 -20 -48
-43 -158 -78 -41 -14 -99 -55 -100 -71 0 -9 -18 -27 -40 -40 -22 -14 -40 -31
-40 -37 0 -16 -62 -17 -77 -2 -8 8 -13 8 -17 0 -4 -6 -20 -11 -37 -11 -22 0
-29 -5 -29 -20 0 -11 -4 -20 -10 -20 -5 0 -18 -8 -28 -18 -30 -30 -83 -49
-170 -62 -52 -8 -86 -18 -89 -26 -3 -9 -20 -14 -44 -14 -21 0 -39 -4 -39 -9 0
-19 -41 -23 -59 -7 -30 28 -84 20 -120 -16 -17 -17 -31 -39 -31 -48 0 -9 -13
-29 -30 -43 -25 -23 -33 -25 -59 -16 -51 18 -75 9 -81 -31 -4 -29 -10 -36 -32
-38 -14 -2 -32 -10 -38 -18 -7 -8 -19 -14 -26 -14 -10 0 -14 -13 -14 -40 0
-22 4 -40 9 -40 5 0 12 -26 14 -57 3 -32 8 -77 11 -101 9 -62 -34 -124 -95
-137 -19 -4 -38 -20 -52 -41 -12 -19 -30 -34 -41 -34 -23 0 -89 22 -96 32 -3
4 -20 8 -37 10 -17 1 -29 6 -27 10 10 15 -27 21 -52 8 -28 -16 -32 -60 -9
-107 23 -45 35 -151 18 -157 -7 -3 -13 -14 -13 -25 0 -11 -8 -22 -19 -26 -10
-3 -25 -24 -34 -46 -9 -23 -21 -38 -27 -34 -5 3 -15 3 -20 0 -12 -8 12 -35 32
-35 39 -1 86 -77 68 -111 -6 -11 -9 -23 -6 -28 8 -12 -24 -52 -35 -45 -12 7
-70 -15 -82 -30 -5 -7 -11 -5 -18 7 -15 26 -29 21 -29 -11 0 -15 -11 -39 -25
-55 -22 -23 -33 -27 -83 -27 -49 0 -63 4 -92 30 -19 16 -43 29 -52 30 -10 0
-18 5 -18 11 0 8 -4 8 -13 0 -21 -17 -57 22 -57 62 0 22 -3 28 -9 18 -14 -21
-26 25 -22 86 3 51 2 51 -35 69 -21 10 -47 27 -57 37 -16 16 -28 18 -80 13
-34 -4 -89 -9 -122 -11 -33 -3 -67 -6 -75 -7 -8 -1 -34 1 -57 5 -39 7 -46 4
-83 -29 -22 -20 -57 -42 -78 -49 -20 -7 -35 -16 -32 -19 7 -7 -61 -56 -79 -56
-8 0 -23 -8 -33 -17 -17 -15 -23 -15 -51 -4 -18 7 -42 15 -54 18 -13 3 -23 9
-23 13 0 14 -45 27 -67 19 -24 -9 -63 -1 -63 12 0 5 -6 9 -14 9 -8 0 -16 4
-18 10 -3 11 -78 -19 -78 -32 0 -4 -21 -8 -47 -8 -50 0 -186 -43 -191 -59 -2
-6 -20 -15 -40 -22 -20 -6 -39 -15 -42 -18 -3 -3 -19 -16 -36 -27 -24 -17 -46
-22 -105 -23 -98 -1 -131 -8 -160 -34 -14 -12 -39 -30 -57 -40 -30 -17 -35
-17 -64 -3 -17 9 -37 16 -45 16 -7 0 -13 5 -13 10 0 6 -8 10 -17 10 -16 0 -63
58 -63 77 0 16 -63 43 -98 43 -20 0 -62 -5 -94 -12 -57 -12 -68 -23 -58 -63
20 -82 20 -91 5 -137 -12 -39 -13 -51 -3 -68 7 -11 18 -20 25 -20 7 0 13 -4
13 -8 0 -5 11 -14 25 -20 14 -6 25 -19 25 -27 0 -9 5 -13 11 -10 6 4 16 -1 24
-11 7 -10 39 -32 71 -49 44 -23 62 -40 78 -72 13 -25 28 -43 39 -43 11 0 17
-8 17 -22 1 -34 70 -61 235 -92 44 -8 108 -20 142 -27 88 -17 199 1 300 48 17
9 36 12 42 8 6 -3 41 25 80 64 l68 71 65 0 c45 0 69 5 78 15 8 9 22 12 41 8
15 -3 44 -2 62 1 l34 6 7 78 c4 42 8 87 10 99 3 29 34 63 56 63 10 0 23 7 30
15 10 12 39 15 139 15 69 0 144 -5 166 -12 22 -6 43 -11 47 -10 4 1 5 -4 2
-12 -3 -8 4 -16 21 -20 14 -4 34 -15 44 -25 22 -22 61 -45 77 -46 22 -1 94
-41 94 -52 0 -18 25 -16 41 3 10 12 28 15 75 12 60 -3 65 -1 97 30 18 18 36
30 39 27 3 -4 21 3 39 14 19 12 51 21 73 21 37 0 38 -1 33 -30 -5 -20 -3 -29
6 -27 24 5 18 -43 -12 -87 -21 -30 -43 -48 -66 -56 -39 -13 -85 -50 -85 -69 0
-6 -9 -11 -21 -11 -12 0 -23 -8 -26 -19 -6 -22 -57 -50 -110 -58 -19 -3 -46
-16 -60 -29 -24 -22 -26 -36 -20 -114 4 -56 57 -126 101 -135 82 -16 124 -23
145 -24 32 0 81 -21 106 -44 31 -28 59 -31 172 -17 72 9 107 10 111 3 4 -6 39
-13 77 -17 85 -7 75 -7 158 0 44 4 77 2 90 -5 12 -6 49 -13 82 -16 33 -2 77
-7 99 -11 25 -4 37 -3 32 4 -3 5 6 13 22 17 15 3 35 14 44 22 10 9 39 18 65
20 27 3 52 9 57 14 17 15 45 10 86 -16 22 -14 46 -25 55 -25 8 0 15 -7 15 -15
0 -22 20 -18 41 8 16 21 24 23 74 19 47 -4 61 -1 87 18 23 17 32 19 38 10 6
-10 15 -10 40 -1 18 6 45 11 60 11 40 0 140 48 140 67 0 13 9 15 56 10 46 -5
58 -3 75 14 23 23 29 24 29 4 0 -19 66 -21 73 -2 3 6 6 -1 6 -17 1 -19 -7 -35
-24 -48 -31 -24 -55 -69 -55 -102 0 -14 -13 -37 -30 -55 -30 -30 -30 -31 -15
-67 8 -20 15 -38 15 -40 0 -2 7 -4 15 -4 10 0 15 -11 15 -35 0 -19 0 -38 0
-42 0 -5 25 -20 55 -36 56 -28 61 -33 47 -53 -9 -15 -67 -44 -87 -44 -8 0 -15
-4 -15 -9 0 -5 -31 -13 -69 -19 -42 -6 -84 -20 -109 -36 -23 -14 -46 -26 -52
-26 -5 0 -10 -6 -10 -13 0 -8 -11 -19 -25 -25 -51 -23 -27 -44 63 -53 39 -4
70 -13 83 -25 12 -10 44 -21 81 -25 38 -4 66 -13 74 -23 6 -9 19 -16 28 -16
13 0 16 -11 16 -56 0 -58 27 -114 54 -114 25 0 75 -31 81 -50 4 -11 11 -20 16
-20 5 0 9 -4 9 -10 0 -5 -7 -10 -15 -10 -20 0 -19 -6 4 -29 10 -10 21 -25 24
-32 4 -11 13 -9 45 9 23 12 48 22 57 22 9 0 18 7 21 15 4 8 12 15 20 15 7 0
29 11 49 24 28 19 43 23 76 19 32 -5 44 -2 50 10 14 24 68 47 111 47 21 0 38
5 38 10 0 6 15 10 34 10 18 0 39 7 46 15 7 8 18 15 25 15 7 0 18 7 25 15 15
18 53 19 83 4 16 -9 22 -9 25 0 2 6 8 11 14 11 6 0 19 12 30 26 12 15 26 23
35 19 17 -6 43 11 43 27 0 6 -11 8 -25 6 -31 -6 -31 -4 -3 22 17 16 19 23 10
32 -10 10 -14 10 -21 0 -6 -10 -13 -11 -34 -1 -33 15 -33 21 -4 55 22 26 42
31 119 35 10 0 20 4 23 10 4 5 35 9 71 9 63 0 64 0 64 -27 0 -35 -7 -44 -45
-63 -41 -20 -62 -46 -82 -102 -18 -50 -33 -62 -33 -28 0 23 -10 26 -28 8 -18
-18 -15 -28 8 -28 11 0 20 -7 20 -15 0 -12 -16 -15 -80 -15 -57 0 -80 -4 -80
-12 0 -7 -12 -21 -28 -30 -15 -10 -39 -27 -54 -39 -14 -12 -38 -21 -53 -21
-20 0 -26 -5 -22 -18 3 -13 0 -16 -13 -13 -21 6 -30 -21 -30 -98 0 -62 26
-109 61 -109 10 0 19 -4 19 -10 0 -5 9 -10 20 -10 11 0 20 7 20 15 0 19 43 30
68 16 24 -13 105 -4 145 16 16 8 27 9 27 3 0 -5 15 -10 34 -10 72 0 126 -39
126 -91 0 -24 11 -42 44 -76 47 -47 50 -65 14 -91 -24 -17 -23 -32 2 -32 17 0
20 -7 20 -46 0 -38 -5 -49 -30 -71 -16 -13 -30 -31 -30 -39 0 -8 -4 -14 -10
-14 -5 0 -10 -9 -10 -20 0 -13 -7 -20 -20 -20 -11 0 -20 5 -20 10 0 6 -9 10
-20 10 -14 0 -20 -7 -20 -21 0 -25 -26 -54 -35 -39 -3 5 -22 10 -41 10 -33 0
-34 -1 -34 -40 0 -22 4 -40 9 -40 5 0 11 -20 13 -45 l3 -45 -77 0 c-48 0 -78
-4 -80 -11 -6 -18 -78 -2 -78 18 0 11 -6 14 -22 9 -13 -3 -45 -6 -72 -6 l-49
0 6 -53 c3 -33 0 -64 -8 -85 -8 -17 -12 -32 -10 -32 2 0 -1 -14 -6 -32 -7 -25
-5 -36 8 -50 20 -22 39 -23 47 -3 6 16 44 19 84 9 19 -6 22 -11 17 -33 -4 -18
-3 -22 4 -12 8 12 14 12 38 -4 22 -15 24 -20 11 -23 -25 -5 -35 -99 -14 -139
8 -17 22 -33 31 -36 8 -4 15 -11 15 -17 0 -15 38 -50 54 -50 9 0 12 -7 9 -20
-3 -11 0 -27 7 -35 16 -19 5 -49 -15 -41 -24 9 -17 -9 15 -37 19 -17 32 -40
36 -65 5 -34 11 -40 65 -65 33 -16 63 -35 66 -43 3 -8 11 -14 19 -14 8 0 13
-3 13 -7 -4 -27 3 -43 21 -43 11 0 20 -7 20 -15 0 -8 9 -15 20 -15 11 0 20 -4
20 -10 0 -5 10 -18 22 -30 12 -11 23 -27 24 -36 2 -9 7 -21 13 -27 6 -6 11
-26 11 -43 0 -18 5 -45 10 -59 9 -23 15 -26 38 -22 22 4 33 -2 60 -31 27 -30
32 -43 28 -68 -4 -30 -3 -32 36 -37 65 -9 128 28 128 74 0 12 4 17 11 14 6 -4
16 1 24 11 7 10 35 26 61 34 38 13 50 22 52 40 4 28 30 50 49 43 8 -3 13 3 13
16 0 12 7 24 15 27 8 4 15 15 15 25 0 14 9 21 30 26 17 3 30 8 30 12 0 18 58
71 78 71 16 0 22 6 22 21 0 18 -4 20 -25 15 -14 -4 -25 -2 -25 4 0 5 9 10 20
10 10 0 23 6 27 13 4 8 16 18 27 24 26 14 33 101 8 119 -15 11 -14 13 11 19
15 4 27 11 27 17 0 5 3 7 8 5 4 -3 7 6 7 19 0 13 -5 24 -10 24 -6 0 -19 16
-29 35 -11 19 -40 48 -65 64 -55 36 -81 65 -81 90 0 28 11 52 20 46 13 -8 22
13 13 28 -4 6 -6 20 -5 30 2 9 -3 17 -10 17 -11 0 -10 2 0 9 8 4 14 24 15 42
2 38 26 58 69 59 20 0 32 8 43 30 9 17 20 30 26 30 6 0 19 10 29 22 18 22 21
22 46 8 21 -12 28 -23 30 -55 5 -64 5 -65 26 -54 10 5 23 7 28 4 6 -3 10 1 10
9 0 9 4 16 10 16 15 0 100 91 100 108 0 16 85 102 101 102 6 0 9 19 7 42 -3
39 -6 44 -35 52 -17 5 -36 20 -42 32 -12 28 -43 64 -53 64 -5 0 -8 -8 -9 -17
0 -15 -2 -14 -11 4 -15 30 -22 32 -160 34 -67 1 -128 3 -135 6 -7 3 -13 17
-13 32 -1 33 -32 71 -59 71 -16 0 -21 6 -21 25 0 18 5 25 20 25 11 0 20 -4 20
-10 0 -14 56 -13 97 2 26 9 43 9 79 0 57 -15 129 1 214 49 67 39 130 61 163
60 41 -3 87 20 87 43 0 22 28 39 71 41 23 1 44 7 48 12 3 5 26 15 50 22 25 7
55 20 68 28 12 8 29 13 36 10 7 -3 24 4 38 14 13 10 32 19 41 19 10 0 22 9 28
20 6 12 21 20 35 20 14 0 25 5 25 10 0 6 6 10 14 10 7 0 21 11 30 25 9 14 23
25 31 25 7 0 39 13 70 29 31 16 75 33 97 36 28 5 42 13 45 26 3 10 12 19 19
19 8 0 14 5 14 10 0 6 13 10 29 10 44 0 61 10 61 34 0 32 79 94 129 102 23 4
44 11 48 17 3 5 14 -1 24 -14 16 -21 20 -22 42 -10 14 7 31 10 37 6 9 -6 10 0
6 22 -9 38 11 94 24 73 8 -12 13 -13 27 -3 10 7 32 20 50 29 18 9 48 36 68 60
24 28 44 44 59 44 25 0 123 84 118 102 -2 6 14 9 43 6 25 -2 45 0 45 4 0 5 17
8 38 8 33 0 39 4 56 41 23 47 93 119 117 119 9 0 24 9 35 21 13 14 27 19 47
16 18 -2 31 1 34 10 3 7 13 13 22 13 9 0 22 5 29 12 7 7 12 8 12 4 0 -5 7 -3
15 4 8 7 15 26 15 42 0 28 -2 30 -27 23 -50 -12 -71 -31 -66 -59 4 -19 1 -26
-10 -26 -12 0 -14 9 -10 40 3 22 1 40 -4 40 -15 0 -13 101 3 150 15 45 45 70
85 70 10 0 21 4 24 10 3 5 23 14 45 20 22 6 51 24 68 44 16 19 38 36 48 38 12
2 21 14 24 34 5 32 64 106 93 117 10 4 17 17 17 32 0 20 9 29 43 45 49 23 118
39 165 40 30 0 120 35 132 51 3 3 14 9 26 13 12 3 26 17 32 30 7 16 22 26 46
30 22 4 36 13 36 21 0 16 42 30 65 21 10 -4 15 1 15 14 0 11 6 20 13 20 15 0
67 -54 67 -69 0 -12 37 -24 49 -16 6 3 13 -11 17 -32 9 -53 13 -56 40 -38 13
8 44 18 69 22 25 3 50 12 56 19 6 8 17 14 23 14 6 0 24 14 38 31 22 24 34 30
60 27 24 -2 33 -8 32 -20 -1 -10 2 -18 7 -18 5 0 9 -9 9 -19 0 -28 19 -30 68
-10 23 10 48 16 55 14 6 -3 18 -1 26 4 13 8 13 12 1 26 -9 11 -10 19 -3 23 6
4 16 26 23 49 8 26 24 49 39 60 14 9 36 28 48 41 25 29 22 38 -26 90 -17 19
-29 38 -26 43 4 5 -1 9 -9 9 -20 0 -32 40 -15 51 11 8 11 11 -3 20 -21 12 -24
39 -5 39 6 0 26 13 43 29 36 34 86 61 111 61 10 0 31 7 47 15 15 8 38 15 50
15 27 0 88 63 91 94 4 34 24 66 40 66 22 0 65 41 65 62 0 10 5 18 10 18 6 0
10 9 10 20 0 22 19 60 35 72 6 4 19 8 31 8 11 0 29 7 40 15 18 14 18 16 2 29
-10 7 -18 19 -18 27 0 11 -2 11 -10 -1 -6 -10 -7 -3 -3 24 4 27 2 40 -8 46
-24 15 0 24 27 10 29 -16 94 -16 124 0 12 6 20 21 20 35 l0 25 37 -18 c28 -13
37 -14 41 -4 2 7 11 20 20 28 15 15 14 17 -1 29 -9 7 -17 22 -17 34 0 14 -6
21 -20 21 -16 0 -20 7 -20 31 0 29 -2 31 -29 26 -20 -4 -31 -2 -35 8 -4 11 3
15 29 15 19 0 35 -4 35 -10 0 -5 13 -10 29 -10 17 0 33 5 36 10 3 6 -1 10 -9
10 -9 0 -16 6 -16 14 0 16 41 29 64 20 12 -5 16 0 16 20 0 32 -31 35 -62 6
-27 -25 -48 -26 -48 -2 1 21 23 52 39 52 6 0 14 13 17 30 4 16 13 35 20 41 19
16 18 49 -3 72 -10 10 -18 26 -18 35 0 10 -5 16 -11 15 -7 -1 -11 21 -10 65 1
59 3 67 21 70 43 7 48 11 35 27 -9 11 -16 12 -26 4 -7 -6 -17 -8 -23 -5 -5 4
-11 -1 -13 -10 -3 -14 -7 -13 -30 6 -15 11 -27 29 -26 38 4 49 -2 62 -27 62
-22 0 -25 4 -25 40 0 33 -3 40 -20 40 -16 0 -20 -7 -20 -37 0 -57 -11 -68 -40
-41 -41 39 -74 58 -102 58 -16 0 -28 5 -28 10 0 6 -9 10 -21 10 -15 0 -19 -5
-15 -15 3 -9 -7 -23 -31 -39 -33 -23 -37 -24 -59 -9 -26 17 -31 38 -12 49 8 5
6 10 -8 15 -19 7 -14 10 54 34 19 7 14 20 -13 35 -19 10 -22 16 -13 27 6 8 20
12 32 11 22 -3 24 8 10 65 -6 26 -5 27 33 27 27 0 46 -6 57 -19 18 -19 19 -19
53 16 26 25 32 37 23 43 -8 5 13 14 55 23 37 9 69 18 72 21 15 15 -11 34 -66
49 -74 21 -71 21 -71 2 0 -8 -7 -15 -15 -15 -17 0 -35 59 -35 118 0 31 -4 42
-15 42 -21 0 -19 43 3 63 10 10 26 17 36 17 28 0 59 35 51 59 -3 12 -2 21 3
21 5 0 12 23 14 50 3 31 13 59 25 73 31 35 63 96 63 121 0 29 25 54 34 34 3
-7 3 -1 0 15 -5 20 -1 32 17 47 l24 20 -22 19 c-22 19 -22 19 -2 24 16 4 20
12 17 38 -3 31 -6 33 -60 44 -32 6 -58 8 -58 3 0 -14 -38 -8 -44 7 -3 8 -12
15 -21 15 -8 0 -15 5 -15 11 0 14 -26 39 -41 39 -9 0 -8 4 1 15 7 8 19 15 26
15 8 0 14 5 14 12 0 6 7 20 17 30 15 17 15 18 -13 18 -23 0 -26 -2 -14 -10 13
-9 13 -11 0 -20 -8 -5 -22 -10 -30 -10 -8 0 -31 -10 -50 -22 l-35 -22 25 -7
c21 -6 19 -7 -15 -8 -45 -1 -105 -33 -105 -56 0 -8 -7 -15 -15 -15 -8 0 -15
-5 -15 -10 0 -6 -11 -15 -24 -19 -24 -10 -35 -42 -37 -105 0 -26 -2 -28 -9
-11 -13 34 -24 -50 -12 -98 6 -25 10 -33 11 -19 1 19 7 22 41 22 34 0 40 -3
40 -21 0 -18 2 -19 15 -9 8 7 15 16 15 21 0 5 -7 9 -15 9 -8 0 -15 6 -15 14 0
9 20 15 61 20 102 10 99 11 99 -37 0 -24 6 -49 13 -56 10 -11 10 -14 0 -18 -7
-3 -13 -18 -13 -33 0 -16 -5 -32 -11 -35 -5 -4 -14 -18 -19 -31 -5 -13 -22
-29 -37 -35 -15 -6 -30 -15 -34 -20 -3 -6 -24 -12 -45 -13 -21 -1 -49 -7 -62
-14 -19 -11 -25 -10 -38 3 -28 27 -64 18 -110 -29 -24 -24 -44 -50 -44 -58 0
-23 -27 -43 -42 -30 -15 11 -58 -2 -58 -18 0 -5 -7 -10 -15 -10 -8 0 -19 -9
-25 -19 -13 -26 -13 -61 1 -61 7 0 8 -11 4 -32 -9 -41 -26 -68 -42 -68 -7 0
-34 -13 -60 -30 -26 -16 -52 -30 -58 -30 -6 0 -18 -8 -27 -17 -9 -10 -27 -26
-41 -35 -13 -9 -35 -36 -47 -60 -13 -24 -29 -54 -36 -68 -8 -14 -14 -37 -14
-52 0 -15 -8 -32 -17 -37 -16 -9 -16 -12 -3 -21 8 -6 24 -8 35 -4 11 3 34 8
50 11 41 6 75 24 75 39 0 6 7 14 14 17 8 3 20 24 26 46 22 81 56 136 95 149
21 8 41 25 50 43 9 17 24 29 35 29 11 0 20 4 20 9 0 12 38 2 47 -12 3 -5 -2
-14 -11 -19 -20 -11 -22 -72 -3 -90 8 -7 12 -20 10 -30 -3 -10 4 -22 16 -30
12 -7 21 -17 21 -23 0 -6 41 -9 110 -7 67 2 110 -1 110 -6 0 -6 -14 -22 -32
-37 -25 -21 -29 -28 -17 -35 11 -7 11 -12 1 -22 -6 -6 -12 -22 -12 -35 0 -13
-4 -23 -10 -23 -5 0 -10 -8 -10 -18 0 -23 -19 -42 -42 -42 -11 0 -18 -7 -18
-18 0 -10 -6 -19 -12 -20 -7 -1 -39 -3 -70 -6 -75 -6 -157 -45 -201 -96 -18
-22 -39 -40 -45 -40 -6 0 -14 -9 -17 -20 -8 -25 -38 -42 -60 -34 -22 9 -55
-28 -55 -60 0 -14 -8 -33 -19 -43 -10 -10 -23 -27 -29 -38 -5 -10 -27 -24 -49
-30 -25 -8 -37 -16 -34 -26 2 -8 4 -31 5 -53 0 -30 -5 -43 -29 -64 -17 -14
-29 -31 -27 -38 3 -16 -32 -36 -56 -33 -9 2 -27 -2 -39 -9 -18 -10 -24 -9 -37
4 -9 9 -32 20 -51 25 -36 10 -46 34 -24 56 8 8 6 18 -6 36 -17 27 -16 29 30
62 15 11 17 17 7 23 -9 6 -10 16 -1 40 6 18 15 30 19 27 4 -3 6 4 3 16 -6 22
-5 22 -130 3 -57 -8 -55 -24 2 -24 43 0 45 -1 45 -30 0 -29 -1 -30 -50 -30
-46 0 -50 -2 -50 -24 0 -13 -8 -33 -17 -44 -21 -24 -87 -62 -108 -62 -8 0 -15
-4 -15 -9 0 -5 -18 -12 -40 -16 -25 -4 -40 -12 -40 -21 0 -20 -44 -17 -63 4
-10 10 -17 23 -17 29 0 6 -11 8 -25 5 -14 -2 -25 -9 -25 -15 0 -6 -21 -8 -57
-4 -41 4 -53 3 -43 -4 12 -8 10 -9 -6 -4 -16 4 -30 -3 -53 -25 -17 -18 -31
-35 -31 -38 0 -10 -50 -32 -72 -32 -10 0 -18 -7 -18 -16 0 -9 -9 -18 -20 -21
-11 -3 -20 -9 -20 -15 0 -5 -29 -7 -66 -4 -57 4 -64 3 -53 -10 10 -13 10 -17
0 -24 -8 -5 -11 -16 -6 -30 5 -16 9 -19 15 -10 4 7 13 9 20 5 9 -6 9 -9 0 -15
-10 -6 -10 -15 -1 -41 12 -35 4 -46 -44 -59 -12 -4 -24 -21 -32 -50 -25 -86
-142 -178 -210 -165 -29 5 -38 2 -64 -26 -21 -23 -27 -35 -19 -44 8 -9 6 -14
-6 -19 -23 -9 -37 3 -23 20 10 12 9 13 -5 8 -9 -3 -16 -10 -16 -15 0 -12 -37
-12 -45 0 -3 5 -1 12 5 16 5 3 10 13 10 21 0 16 -36 19 -45 4 -3 -5 -24 -10
-46 -10 -21 0 -39 -4 -39 -10 0 -5 -18 -10 -39 -10 -22 0 -42 -6 -45 -12 -3
-7 -4 19 -1 57 3 39 10 72 15 73 6 2 10 24 10 50 0 33 6 52 22 69 l21 23 -31
11 c-30 10 -32 14 -32 60 0 40 -3 49 -18 49 -9 0 -28 18 -42 40 -14 22 -30 40
-37 40 -15 0 -28 43 -19 65 4 11 -1 15 -19 15 -14 0 -25 -4 -25 -10 0 -5 -14
-10 -32 -10 -17 0 -55 -12 -83 -26 -42 -20 -52 -29 -48 -45 5 -16 0 -19 -36
-19 -30 0 -41 -4 -41 -15 0 -23 -16 -18 -43 15 -29 34 -37 37 -37 15 0 -11
-12 -15 -50 -15 -76 0 -77 4 -53 214 3 33 1 51 -7 56 -15 9 -4 30 16 30 12 0
12 4 -2 25 -15 23 -15 25 0 25 9 0 16 4 16 8 0 5 43 12 96 15 105 7 130 18
114 47 -6 10 -10 32 -10 49 0 16 -5 33 -10 36 -8 5 -7 11 1 21 23 28 129 11
129 -21 0 -33 38 -8 66 45 11 19 25 41 31 48 14 14 37 7 28 -9 -4 -5 1 -12 10
-16 22 -8 36 16 24 39 -6 11 -21 23 -35 28 -13 5 -27 18 -31 27 -4 10 -15 24
-25 31 -24 17 -23 35 2 57 13 12 20 29 18 44 -2 16 6 35 20 50 12 13 22 32 22
42 0 21 30 27 30 7 1 -16 48 39 60 70 5 12 16 22 24 22 9 0 21 10 27 22 10 18
8 24 -10 39 -23 19 -29 69 -8 69 13 0 47 49 47 68 0 6 -20 30 -44 54 -57 56
-96 138 -67 138 12 0 5 58 -8 74 -5 6 -14 28 -20 50 -9 36 -8 40 19 66 17 16
30 35 30 44 0 10 9 16 24 16 14 0 28 5 32 11 3 6 16 9 29 7 16 -4 28 4 45 29
12 18 31 33 41 33 11 0 19 5 19 10 0 6 18 10 40 10 24 0 40 -5 40 -12 0 -6 9
-3 20 7 13 12 20 31 20 56 0 24 6 42 18 51 22 17 65 109 61 134 -3 22 20 84
57 156 15 29 10 132 -8 155 -6 8 -5 25 3 47 10 28 10 38 0 50 -7 8 -9 21 -5
28 4 7 7 52 5 100 -2 72 0 88 12 88 8 0 17 14 21 33 3 17 9 44 12 60 6 25 4
27 -22 27 -30 0 -104 34 -116 53 -4 7 -27 12 -52 12 -49 1 -73 16 -88 55 -6
14 -12 20 -15 13 -5 -15 -33 -18 -33 -4 0 5 7 16 15 25 8 8 15 28 15 45 0 29
-2 31 -37 31 -21 0 -58 10 -83 22 -43 20 -44 21 -19 27 27 6 27 6 12 44 -8 20
-19 37 -24 37 -5 0 -9 5 -9 11 0 6 -11 20 -24 30 -14 11 -27 33 -31 49 -8 38
-25 49 -25 16 0 -24 -4 -26 -40 -26 l-40 0 0 40 c0 38 2 40 29 40 l30 0 3 88
c3 76 1 89 -17 107 -46 45 -50 54 -29 70 34 25 2 40 -97 45 -79 4 -90 3 -95
-12 -3 -10 -17 -21 -32 -24 -39 -10 -57 -25 -40 -35 20 -12 4 -20 -51 -24 -29
-3 -60 -9 -71 -15 -27 -15 -30 -13 -30 20 0 29 -1 30 -44 24 -27 -4 -46 -2
-50 5 -5 8 -12 7 -26 -1 -15 -9 -27 -8 -59 7 -48 21 -50 29 -13 44 25 10 27
15 24 56 -2 25 -8 45 -13 45 -5 0 -9 18 -9 40 0 29 -4 40 -15 40 -11 0 -15 11
-15 40 0 22 -4 40 -10 40 -5 0 -10 7 -10 15 0 8 -4 15 -9 15 -5 0 -14 -7 -21
-15z m-693 -397 c-2 -13 -4 -3 -4 22 0 25 2 35 4 23 2 -13 2 -33 0 -45z m1363
22 c0 -22 -4 -40 -10 -40 -5 0 -10 18 -10 40 0 22 5 40 10 40 6 0 10 -18 10
-40z m-312 -202 c-1 -56 -3 -67 -5 -34 l-4 48 -40 -6 c-31 -5 -39 -3 -39 9 0
16 4 19 55 30 29 7 29 7 8 16 -30 11 -29 19 2 19 25 0 25 -1 23 -82z m-248
-18 c0 -23 -10 -26 -28 -8 -18 18 -15 28 8 28 13 0 20 -7 20 -20z m463 -57
c-13 -2 -33 -2 -45 0 -13 2 -3 4 22 4 25 0 35 -2 23 -4z m657 -660 c-1 -24 -2
-26 -11 -10 -5 9 -7 22 -4 27 10 17 15 11 15 -17z m-400 -43 c0 -11 -7 -20
-15 -20 -15 0 -21 21 -8 33 12 13 23 7 23 -13z m-1370 -74 c0 -8 -5 -18 -11
-22 -14 -8 -33 11 -25 25 10 16 36 13 36 -3z m3950 -905 c0 -6 -4 -13 -10 -16
-5 -3 -10 1 -10 9 0 9 5 16 10 16 6 0 10 -4 10 -9z m-360 -251 c0 -5 -7 -10
-15 -10 -8 0 -15 5 -15 10 0 6 7 10 15 10 8 0 15 -4 15 -10z m-2426 -59 c3 -5
-3 -11 -15 -14 -16 -4 -18 -3 -8 9 13 16 16 17 23 5z m-94 -132 c0 -33 -4 -39
-25 -44 -14 -3 -36 -7 -50 -10 -21 -5 -25 -2 -25 19 0 14 5 28 10 31 6 3 10
14 10 24 0 21 49 42 68 28 6 -5 12 -27 12 -48z m60 -337 c3 -5 14 -12 24 -16
33 -12 0 -31 -50 -29 -34 1 -47 -3 -51 -15 -11 -30 -46 -62 -69 -62 -12 0 -27
-7 -34 -15 -28 -34 -57 -5 -40 41 7 19 15 24 29 19 14 -4 20 1 24 23 5 22 14
31 47 42 23 7 44 18 47 23 6 10 64 1 73 -11z m-4720 -332 c0 -5 -7 -10 -16
-10 -8 0 -12 5 -9 10 3 6 10 10 16 10 5 0 9 -4 9 -10z m6760 -180 c0 -5 -4
-10 -10 -10 -5 0 -10 5 -10 10 0 6 5 10 10 10 6 0 10 -4 10 -10z m-2726 -523
c8 -12 7 -21 -6 -33 -22 -22 -48 -11 -48 20 0 37 34 45 54 13z m-1024 -1248
c0 -18 -2 -19 -15 -9 -8 7 -15 16 -15 21 0 5 7 9 15 9 9 0 15 -9 15 -21z
m-1010 -627 c0 -11 -12 -22 -33 -30 -41 -15 -47 -15 -47 -2 0 6 11 10 25 10
15 0 25 6 25 14 0 12 8 19 28 25 1 1 2 -7 2 -17z m996 -76 c1 -10 7 -23 13
-29 13 -13 -14 -47 -36 -47 -7 0 -13 -7 -13 -15 0 -18 -15 -18 -53 -2 l-29 12
42 53 c43 53 71 64 76 28z m-740 -101 c7 -30 -13 -62 -30 -45 -5 5 -18 10 -27
10 -22 0 -40 23 -30 39 5 8 17 11 29 7 11 -4 23 -2 27 4 11 17 24 11 31 -15z
m504 -15 c-8 -5 -22 -10 -30 -10 -13 0 -13 1 0 10 8 5 22 10 30 10 13 0 13 -1
0 -10z m-159 -23 c-13 -13 -26 -3 -16 12 3 6 11 8 17 5 6 -4 6 -10 -1 -17z
m-45 -83 c-3 -8 -13 -14 -22 -14 -16 0 -16 1 -1 18 10 10 18 29 18 43 2 21 3
21 6 -4 3 -16 2 -35 -1 -43z m44 -24 c0 -5 -9 -15 -20 -22 -13 -8 -20 -24 -20
-43 0 -23 -3 -27 -10 -15 -9 13 -5 63 7 83 6 11 43 9 43 -3z m-420 -776 c0 -8
-4 -14 -10 -14 -5 0 -10 9 -10 21 0 11 5 17 10 14 6 -3 10 -13 10 -21z m-92
-394 c10 -16 10 -20 -2 -20 -17 0 -38 24 -29 33 10 11 17 8 31 -13z"/>
<path d="M11353 11550 c0 -25 2 -35 4 -22 2 12 2 32 0 45 -2 12 -4 2 -4 -23z"/>
<path d="M11280 11489 c0 -18 2 -19 15 -9 8 7 15 16 15 21 0 5 -7 9 -15 9 -9
0 -15 -9 -15 -21z"/>
<path d="M11470 11495 c6 -8 20 -17 31 -20 10 -4 19 -15 19 -26 0 -10 7 -19
15 -19 11 0 15 11 15 40 l0 40 -46 0 c-40 0 -45 -2 -34 -15z"/>
<path d="M12723 11150 c0 -25 2 -35 4 -22 2 12 2 32 0 45 -2 12 -4 2 -4 -23z"/>
<path d="M1650 11015 c7 -8 16 -15 21 -15 5 0 9 7 9 15 0 9 -9 15 -21 15 -18
0 -19 -2 -9 -15z"/>
<path d="M15600 10000 c0 -5 5 -10 11 -10 5 0 7 5 4 10 -3 6 -8 10 -11 10 -2
0 -4 -4 -4 -10z"/>
<path d="M3280 9765 c0 -8 7 -15 15 -15 8 0 15 4 15 9 0 5 -7 11 -15 15 -9 3
-15 0 -15 -9z"/>
<path d="M3167 9712 c-29 -4 -33 -27 -4 -27 8 0 19 -4 23 -8 8 -8 44 -10 44
-2 0 17 -39 40 -63 37z"/>
<path d="M3363 9660 c0 -23 3 -28 9 -16 5 9 5 23 0 32 -6 12 -9 7 -9 -16z"/>
<path d="M3280 9580 c0 -5 5 -10 10 -10 6 0 10 5 10 10 0 6 -4 10 -10 10 -5 0
-10 -4 -10 -10z"/>
<path d="M15330 9575 c7 -8 16 -15 21 -15 5 0 9 7 9 15 0 9 -9 15 -21 15 -18
0 -19 -2 -9 -15z"/>
<path d="M3284 9488 c-1 -24 1 -35 3 -25 5 19 23 23 23 5 0 -9 3 -9 9 1 6 9 4
23 -6 38 -22 33 -29 29 -29 -19z"/>
<path d="M3200 9300 c0 -22 7 -25 29 -11 16 10 6 31 -15 31 -8 0 -14 -9 -14
-20z"/>
<path d="M15758 9091 c4 -29 7 -31 43 -31 35 0 39 3 39 25 0 19 -5 25 -22 25
-13 0 -32 3 -44 6 -18 5 -20 2 -16 -25z"/>
<path d="M15040 8924 c0 -22 2 -24 14 -14 8 6 12 18 9 26 -9 23 -23 16 -23
-12z"/>
<path d="M10145 8800 c-3 -5 1 -10 10 -10 9 0 13 5 10 10 -3 6 -8 10 -10 10
-2 0 -7 -4 -10 -10z"/>
<path d="M10106 8723 c-13 -13 -20 -15 -23 -5 -5 13 -43 17 -43 4 0 -15 37
-30 51 -21 8 5 24 9 36 9 16 0 21 4 17 15 -8 19 -16 19 -38 -2z"/>
<path d="M15920 8620 c0 -5 5 -10 10 -10 6 0 10 5 10 10 0 6 -4 10 -10 10 -5
0 -10 -4 -10 -10z"/>
<path d="M12640 8352 c0 -12 -9 -23 -19 -27 -19 -6 -19 -7 -4 -25 17 -20 38
-17 30 4 -6 15 40 10 61 -7 8 -6 12 -6 12 2 0 6 5 11 11 11 8 0 7 -5 -1 -15
-10 -13 -11 -18 -1 -28 10 -9 20 -4 47 25 19 21 34 43 33 50 0 10 -2 10 -6 1
-5 -15 -83 -18 -83 -4 0 5 -10 11 -22 14 -13 2 -31 8 -40 12 -14 5 -18 2 -18
-13z"/>
<path d="M7665 8190 c-3 -5 -1 -10 4 -10 6 0 11 5 11 10 0 6 -2 10 -4 10 -3 0
-8 -4 -11 -10z"/>
<path d="M7660 8110 c0 -22 5 -40 10 -40 6 0 10 18 10 40 0 22 -4 40 -10 40
-5 0 -10 -18 -10 -40z"/>
<path d="M15980 8116 c0 -13 -7 -29 -15 -36 -8 -7 -15 -28 -15 -46 0 -30 3
-34 25 -34 24 0 25 2 25 70 0 40 -4 70 -10 70 -5 0 -10 -11 -10 -24z"/>
<path d="M15878 8035 c-10 -11 15 -45 32 -45 13 1 13 2 -1 13 -9 7 -18 18 -20
25 -2 7 -7 10 -11 7z"/>
<path d="M15613 7875 c-3 -9 -3 -18 0 -22 10 -10 37 6 37 22 0 20 -29 20 -37
0z"/>
<path d="M15909 7003 c-9 -2 -22 -15 -29 -28 -7 -14 -19 -25 -27 -25 -7 0 -13
-4 -13 -9 0 -5 -13 -23 -30 -39 -24 -24 -30 -39 -30 -71 0 -39 -2 -41 -30 -41
-22 0 -28 -4 -23 -16 3 -8 12 -13 19 -10 8 3 14 -1 14 -10 0 -8 -5 -12 -10 -9
-6 3 -26 1 -44 -6 -25 -9 -42 -26 -61 -61 -15 -27 -32 -47 -38 -45 -15 5 -58
-49 -76 -96 -8 -20 -18 -37 -23 -37 -4 0 -8 -6 -8 -14 0 -9 -7 -12 -19 -9 -13
3 -23 -2 -30 -16 -7 -11 -17 -18 -25 -15 -16 6 -105 -55 -106 -72 0 -6 -7 -17
-15 -24 -10 -9 -12 -17 -5 -30 8 -16 5 -19 -20 -25 -39 -8 -68 -46 -46 -59 12
-8 12 -15 -3 -45 -9 -20 -20 -39 -25 -42 -4 -4 -3 -10 3 -13 6 -4 11 -16 11
-26 0 -11 16 -27 40 -41 22 -13 40 -30 40 -38 0 -21 69 -45 71 -25 1 8 2 20 3
26 0 7 10 14 21 16 11 2 25 8 32 14 8 6 15 3 22 -9 10 -17 12 -17 25 0 7 9 20
17 28 17 14 0 38 -52 38 -82 0 -26 -35 -48 -76 -48 -22 0 -48 -6 -59 -14 -11
-7 -44 -18 -73 -25 -29 -6 -63 -18 -76 -26 -21 -14 -24 -13 -41 5 -16 18 -20
19 -35 5 -9 -8 -32 -20 -51 -26 -44 -15 -69 -37 -69 -61 0 -20 -22 -48 -37
-48 -4 0 -27 -18 -51 -40 -24 -22 -46 -40 -51 -40 -4 0 -13 -11 -21 -24 -7
-13 -21 -26 -30 -29 -11 -3 -20 -16 -22 -33 -2 -24 -9 -30 -38 -35 -19 -4 -50
-12 -67 -17 -21 -7 -35 -7 -39 -1 -8 14 4 59 17 59 6 0 7 5 3 11 -3 6 7 23 22
39 89 86 105 109 102 147 -2 28 3 43 20 60 24 24 30 63 9 63 -46 0 -97 57 -97
108 0 12 -12 28 -29 38 -19 11 -27 23 -23 32 3 9 1 13 -5 9 -17 -10 -103 50
-103 72 0 11 -8 27 -17 36 -15 16 -15 19 2 50 9 19 23 36 30 38 7 3 10 17 7
36 -4 28 -7 31 -42 31 -32 0 -39 4 -44 25 -5 21 -12 25 -33 22 -14 -2 -31 -10
-37 -18 -8 -10 -33 -14 -86 -14 -78 0 -110 13 -110 46 0 9 -12 21 -26 27 -14
7 -22 17 -19 22 3 6 -1 10 -10 10 -9 0 -13 -4 -10 -10 3 -5 2 -10 -3 -10 -5 0
-20 -15 -32 -34 -17 -24 -36 -36 -71 -45 -26 -7 -55 -21 -64 -31 -9 -10 -29
-23 -45 -30 -23 -9 -28 -17 -26 -41 2 -33 -16 -49 -56 -49 -33 0 -76 -40 -86
-80 -9 -39 -39 -51 -78 -30 -20 11 -27 9 -54 -14 -17 -14 -37 -26 -43 -26 -17
0 -67 -66 -67 -88 0 -10 -9 -27 -19 -36 -11 -10 -24 -30 -31 -46 -6 -15 -26
-36 -45 -45 -27 -15 -34 -26 -39 -62 -6 -48 -26 -76 -48 -68 -16 6 -78 -48
-78 -69 0 -27 -20 -28 -31 -2 -11 23 -16 25 -55 20 -33 -4 -45 -1 -52 12 -8
14 -12 15 -37 3 -16 -8 -33 -23 -39 -34 -6 -11 -14 -22 -17 -25 -3 -3 -11 -19
-18 -37 -7 -17 -24 -46 -37 -64 -31 -42 -30 -63 3 -87 l27 -20 -35 -31 c-19
-18 -45 -35 -59 -38 -13 -3 -33 -15 -44 -25 -11 -10 -30 -18 -42 -18 -12 0
-24 -7 -28 -15 -3 -8 -11 -14 -17 -13 -13 3 -21 -24 -20 -65 0 -16 -6 -30 -14
-34 -24 -9 -17 -31 15 -50 17 -9 30 -23 30 -29 0 -6 7 -17 16 -25 8 -7 13 -21
11 -31 -3 -10 -1 -18 5 -18 5 0 8 -15 6 -32 -2 -24 -8 -34 -24 -36 -11 -2 -28
-17 -38 -34 -11 -17 -35 -47 -56 -68 -32 -32 -43 -36 -81 -36 -43 1 -69 -11
-69 -33 0 -7 -8 -7 -25 1 -19 9 -28 9 -37 0 -7 -7 -26 -12 -44 -12 -17 0 -37
-7 -44 -15 -7 -8 -20 -15 -30 -15 -9 0 -23 -12 -30 -26 -13 -23 -12 -27 3 -35
20 -12 22 -57 4 -84 -18 -26 -7 -157 15 -183 8 -9 15 -30 16 -46 3 -38 16 -53
70 -78 37 -18 49 -19 81 -9 21 6 61 11 90 11 28 0 59 4 69 9 42 22 135 34 226
28 97 -7 121 1 114 34 -2 10 10 15 42 17 33 2 41 0 30 -8 -11 -7 -4 -10 30
-10 33 0 41 3 30 10 -12 8 -11 10 7 10 12 0 38 16 59 35 20 19 40 32 45 29 4
-2 17 12 28 33 23 44 64 76 89 71 9 -2 16 -11 16 -21 -1 -9 4 -17 12 -17 8 0
14 -4 14 -10 0 -5 10 -10 23 -10 l22 0 -25 20 c-31 24 -7 28 36 5 39 -20 64
-19 64 3 0 10 5 23 12 30 6 6 9 15 5 18 -4 4 -15 -4 -25 -17 l-19 -23 -7 22
c-4 12 -5 26 -2 31 9 13 87 19 116 9 22 -8 23 -11 9 -21 -9 -7 -16 -19 -17
-27 -1 -27 -28 -90 -35 -83 -4 3 -7 -1 -7 -10 0 -8 -3 -22 -6 -31 -3 -9 -1
-16 5 -16 6 0 11 7 11 15 0 8 4 15 9 15 15 0 41 -30 41 -46 0 -12 4 -12 24 1
14 9 33 15 43 13 15 -3 18 5 21 47 3 46 21 90 23 55 0 -8 4 -5 10 8 5 13 14
20 19 17 6 -4 22 5 36 20 15 16 43 31 67 36 23 5 58 15 77 23 92 36 116 40
148 21 l30 -18 28 33 c16 18 58 52 95 76 38 24 73 52 78 63 7 12 33 26 65 35
30 9 58 21 61 26 3 6 13 10 21 10 8 0 33 12 55 27 29 19 54 27 88 28 40 0 46
3 49 23 5 30 26 39 107 47 39 3 87 7 109 9 l38 4 -6 -61 c-7 -65 -9 -68 -86
-127 -48 -37 -59 -49 -75 -81 -9 -16 -20 -29 -25 -29 -6 0 -10 -7 -10 -15 0
-8 -4 -15 -10 -15 -5 0 -10 -5 -10 -11 0 -6 -10 -19 -22 -29 -21 -16 -21 -20
-9 -61 7 -24 17 -51 21 -60 10 -20 3 -29 -21 -29 -10 0 -20 -8 -24 -17 -9 -28
-76 -69 -133 -83 -29 -6 -55 -16 -58 -21 -3 -5 -13 -9 -23 -9 -28 0 -42 -20
-29 -44 6 -12 12 -22 13 -24 2 -2 14 3 27 12 12 8 42 17 65 19 43 4 93 30 93
48 0 15 53 58 73 59 27 0 107 93 107 124 0 9 12 18 28 21 15 3 41 10 58 16 52
16 104 -14 104 -60 0 -46 15 -54 32 -17 13 25 23 34 42 34 14 0 26 -4 26 -9 0
-16 74 -86 110 -104 19 -9 42 -23 50 -31 12 -10 25 -11 60 -2 49 13 77 33 60
43 -6 4 -8 15 -5 25 7 23 -20 40 -61 37 -35 -2 -48 31 -16 40 11 3 22 14 25
25 4 15 12 19 33 16 15 -2 29 2 31 10 3 6 0 12 -6 12 -6 0 -11 5 -11 10 0 6 7
10 15 10 8 0 15 -6 15 -14 0 -22 16 -23 92 -8 80 16 198 9 198 -12 0 -8 -32
-19 -80 -30 -55 -12 -80 -21 -80 -31 0 -8 -7 -15 -15 -15 -14 0 -20 -12 -16
-33 4 -22 -32 -67 -57 -72 -15 -4 -37 -8 -49 -11 -23 -4 -33 -24 -13 -24 6 0
15 -12 20 -26 8 -20 15 -24 28 -18 9 4 26 7 37 7 11 -1 113 -3 227 -5 193 -3
208 -5 222 -23 14 -18 15 22 16 374 l0 394 -25 23 c-14 13 -25 28 -25 34 0 5
-7 10 -15 10 -8 0 -15 6 -15 13 0 12 24 28 63 43 16 6 17 58 17 905 l0 899
-37 -1 c-21 -1 -45 -3 -54 -6z m-821 -1838 c12 -12 -32 -35 -58 -31 -14 2 -31
5 -37 5 -7 1 -13 9 -13 19 0 15 8 18 51 16 28 -2 54 -6 57 -9z m-28 -171 c0
-8 -4 -14 -10 -14 -5 0 -10 9 -10 21 0 11 5 17 10 14 6 -3 10 -13 10 -21z"/>
<path d="M14305 6860 c3 -5 8 -10 11 -10 2 0 4 5 4 10 0 6 -5 10 -11 10 -5 0
-7 -4 -4 -10z"/>
<path d="M14997 6834 c-8 -8 1 -24 14 -24 5 0 9 7 9 15 0 15 -12 20 -23 9z"/>
<path d="M14980 6466 c0 -14 5 -26 10 -26 6 0 10 9 10 19 0 11 -4 23 -10 26
-6 4 -10 -5 -10 -19z"/>
<path d="M14940 6362 c0 -13 -8 -31 -17 -38 -16 -12 -15 -13 10 -14 18 0 27 5
27 15 0 9 7 26 15 39 15 23 15 24 -10 24 -20 0 -25 -5 -25 -26z"/>
<path d="M14797 6339 c-10 -11 -16 -23 -13 -27 7 -6 46 27 46 40 0 14 -15 9
-33 -13z"/>
<path d="M14785 6290 c-3 -5 -1 -10 4 -10 6 0 11 5 11 10 0 6 -2 10 -4 10 -3
0 -8 -4 -11 -10z"/>
<path d="M13780 6237 c0 -41 -3 -46 -30 -56 -37 -12 -38 -19 -5 -31 40 -15 67
18 63 77 -4 63 -28 71 -28 10z"/>
<path d="M258 6233 c12 -2 32 -2 45 0 12 2 2 4 -23 4 -25 0 -35 -2 -22 -4z"/>
<path d="M15000 5770 c0 -5 5 -10 11 -10 5 0 7 5 4 10 -3 6 -8 10 -11 10 -2 0
-4 -4 -4 -10z"/>
<path d="M8800 5550 c0 -26 2 -28 23 -21 12 5 22 14 22 21 0 7 -10 16 -22 21
-21 7 -23 5 -23 -21z"/>
<path d="M8752 5543 c2 -10 10 -18 18 -18 8 0 16 8 18 18 2 12 -3 17 -18 17
-15 0 -20 -5 -18 -17z"/>
<path d="M9740 5040 c0 -5 5 -10 10 -10 6 0 10 5 10 10 0 6 -4 10 -10 10 -5 0
-10 -4 -10 -10z"/>
<path d="M9585 5011 c-3 -5 -1 -12 5 -16 5 -3 10 1 10 9 0 18 -6 21 -15 7z"/>
<path d="M11070 4805 l-35 -13 43 -1 c31 -1 42 3 42 14 0 18 -4 18 -50 0z"/>
<path d="M9698 4796 c-24 -18 -23 -63 1 -75 14 -8 23 -5 38 12 34 37 36 56 7
67 -30 12 -25 12 -46 -4z"/>
<path d="M9904 4714 c3 -9 6 -31 6 -50 0 -19 3 -34 8 -34 4 0 5 22 4 50 -2 27
-8 50 -14 50 -6 0 -7 -7 -4 -16z"/>
<path d="M5790 4683 c-42 -5 -61 -20 -41 -32 9 -6 10 -14 5 -22 -5 -8 -9 -25
-9 -39 0 -26 -10 -29 -112 -31 -18 0 -33 -5 -33 -10 0 -6 5 -7 10 -4 8 5 12
-17 10 -62 -1 -5 -17 -7 -38 -6 -20 1 -27 -1 -14 -4 12 -2 22 -8 22 -13 0 -5
-10 -10 -22 -12 -18 -2 -22 -8 -20 -28 5 -32 4 -31 41 -32 17 -1 31 -5 31 -10
0 -4 8 -8 18 -8 13 0 14 2 4 9 -11 6 -10 11 3 25 24 24 33 20 41 -20 4 -24 14
-38 29 -44 13 -5 26 -14 30 -19 14 -24 37 -14 97 42 16 15 33 27 37 27 4 0 15
22 25 49 16 46 18 48 41 37 14 -6 24 -15 24 -21 -3 -24 2 -36 14 -34 6 2 27
-1 45 -5 40 -9 47 -5 33 23 -6 12 -15 30 -21 41 -5 11 -10 46 -10 77 -1 70
-13 88 -65 92 -22 2 -42 6 -45 10 -3 5 -18 10 -35 14 -16 3 -37 7 -45 10 -8 2
-31 2 -50 0z"/>
<path d="M4140 4533 c0 -13 5 -23 10 -23 13 0 13 11 0 30 -8 12 -10 11 -10 -7z"/>
<path d="M4190 4491 c0 -5 5 -13 10 -16 6 -3 10 -2 10 4 0 5 -4 13 -10 16 -5
3 -10 2 -10 -4z"/>
<path d="M6158 4473 c6 -2 18 -2 25 0 6 3 1 5 -13 5 -14 0 -19 -2 -12 -5z"/>
<path d="M5920 4455 c0 -9 5 -15 11 -13 6 2 11 8 11 13 0 5 -5 11 -11 13 -6 2
-11 -4 -11 -13z"/>
<path d="M13626 4433 c-11 -11 -6 -23 9 -23 8 0 15 4 15 9 0 13 -16 22 -24 14z"/>
<path d="M4137 4415 c-7 -16 -10 -17 -17 -5 -10 16 -11 14 -13 -40 -2 -31 1
-35 23 -34 29 1 57 -21 37 -30 -6 -3 -2 -3 11 0 16 4 22 1 22 -10 0 -20 6 -20
28 2 25 25 18 82 -14 105 -19 14 -24 15 -24 4 0 -8 -9 -17 -19 -20 -16 -4 -21
1 -23 22 -3 23 -4 24 -11 6z m78 -54 c-3 -6 -11 -11 -17 -11 -6 0 -6 6 2 15
14 17 26 13 15 -4z"/>
<path d="M13373 4405 c-3 -9 -3 -19 1 -22 7 -7 36 16 36 28 0 15 -30 10 -37
-6z"/>
<path d="M5660 4370 c0 -5 5 -10 10 -10 6 0 10 5 10 10 0 6 -4 10 -10 10 -5 0
-10 -4 -10 -10z"/>
<path d="M13338 4363 c7 -3 16 -2 19 1 4 3 -2 6 -13 5 -11 0 -14 -3 -6 -6z"/>
<path d="M12450 4290 c0 -19 11 -26 23 -14 8 8 -3 34 -14 34 -5 0 -9 -9 -9
-20z"/>
<path d="M14265 4284 c-10 -8 -32 -14 -47 -14 -42 0 -76 -27 -98 -77 -24 -55
-24 -55 -2 -51 25 4 32 19 26 56 -4 19 -2 32 4 32 14 0 24 -17 27 -44 1 -11 3
-24 4 -28 0 -5 13 -8 29 -8 22 0 34 11 65 57 20 31 37 62 37 69 0 19 -24 23
-45 8z"/>
<path d="M14045 4269 c-4 -6 -4 -13 -1 -16 8 -8 36 5 36 17 0 13 -27 13 -35
-1z"/>
<path d="M5868 4232 c-11 -14 -11 -15 5 -9 10 4 25 7 33 7 21 0 17 16 -5 17
-11 1 -26 -6 -33 -15z"/>
<path d="M7429 4218 c-5 -20 -2 -28 13 -31 14 -4 16 -2 10 6 -6 7 -12 21 -14
32 -3 17 -5 16 -9 -7z"/>
<path d="M4143 4173 c-7 -3 -13 -9 -13 -14 0 -12 37 -12 44 0 7 11 -14 20 -31
14z"/>
<path d="M15945 4138 c-83 -41 -83 -40 -66 -183 11 -89 19 -125 28 -125 8 0
13 -12 13 -28 0 -15 5 -33 12 -40 9 -9 7 -12 -10 -12 -19 0 -22 -6 -22 -36 0
-45 19 -64 64 -64 l36 0 0 255 c0 140 -3 255 -7 254 -5 -1 -26 -10 -48 -21z"/>
<path d="M13785 4090 c-3 -5 -2 -10 4 -10 5 0 13 5 16 10 3 6 2 10 -4 10 -5 0
-13 -4 -16 -10z"/>
<path d="M12895 4080 c-3 -5 -1 -10 4 -10 6 0 11 5 11 10 0 6 -2 10 -4 10 -3
0 -8 -4 -11 -10z"/>
<path d="M13535 3970 c-3 -5 -4 -14 0 -20 8 -13 35 -1 35 16 0 16 -26 19 -35
4z"/>
<path d="M12038 3963 c-10 -2 -18 -13 -18 -24 0 -10 -4 -19 -10 -19 -5 0 -10
-7 -10 -16 0 -14 -3 -14 -15 -4 -26 22 -26 5 0 -18 l25 -22 0 21 c0 34 61 68
72 41 2 -5 17 -12 35 -15 41 -8 35 14 -12 43 -33 20 -37 21 -67 13z"/>
<path d="M11796 3935 c-20 -31 -20 -36 0 -28 9 3 20 0 24 -7 7 -11 12 -11 23
-2 8 7 27 10 46 6 21 -4 31 -3 31 6 0 6 -6 10 -12 7 -19 -6 -48 11 -48 28 0
25 -46 18 -64 -10z"/>
<path d="M14218 3913 c7 -3 16 -2 19 1 4 3 -2 6 -13 5 -11 0 -14 -3 -6 -6z"/>
<path d="M5711 3864 c0 -11 3 -14 6 -6 3 7 2 16 -1 19 -3 4 -6 -2 -5 -13z"/>
<path d="M11975 3860 c-3 -5 -1 -10 4 -10 6 0 11 5 11 10 0 6 -2 10 -4 10 -3
0 -8 -4 -11 -10z"/>
<path d="M11345 3730 c-12 -13 -31 -20 -55 -20 -26 0 -42 -7 -57 -24 -30 -35
-15 -52 49 -55 57 -2 95 -24 69 -40 -8 -5 -9 -11 -3 -15 17 -10 43 72 36 112
-10 58 -17 66 -39 42z m-67 -71 c-2 -6 -8 -10 -13 -10 -5 0 -11 4 -13 10 -2 6
4 11 13 11 9 0 15 -5 13 -11z m82 1 c0 -5 -2 -10 -4 -10 -3 0 -8 5 -11 10 -3
6 -1 10 4 10 6 0 11 -4 11 -10z"/>
<path d="M15246 3614 c-9 -23 -8 -24 25 -24 32 0 32 13 -1 30 -13 7 -19 6 -24
-6z"/>
<path d="M5695 3610 c-3 -5 -1 -10 4 -10 6 0 11 5 11 10 0 6 -2 10 -4 10 -3 0
-8 -4 -11 -10z"/>
<path d="M15132 3569 c-9 -14 -19 -18 -32 -14 -14 4 -20 2 -20 -9 0 -8 -8 -20
-17 -25 -16 -9 -16 -10 5 -11 12 0 22 -4 22 -10 0 -5 6 -10 14 -10 8 0 16 -4
18 -10 2 -5 19 -7 41 -3 35 5 37 8 37 42 -1 62 -42 93 -68 50z"/>
<path d="M15200 3576 c0 -17 37 -50 43 -39 3 5 -6 18 -19 30 -15 13 -24 17
-24 9z"/>
<path d="M11187 3450 c-3 -14 -3 -28 2 -33 12 -12 20 14 11 37 -6 18 -7 18
-13 -4z"/>
<path d="M11870 3446 c0 -9 5 -16 10 -16 6 0 10 4 10 9 0 6 -4 13 -10 16 -5 3
-10 -1 -10 -9z"/>
<path d="M14781 3393 c-13 -3 -26 -14 -29 -25 -3 -12 -11 -18 -21 -15 -14 3
-15 -4 -13 -49 4 -49 6 -53 22 -44 10 6 28 10 39 10 13 0 21 6 21 18 0 9 9 23
21 30 15 10 19 21 17 45 -3 33 -13 38 -57 30z"/>
<path d="M15122 3370 c0 -14 2 -19 5 -12 2 6 2 18 0 25 -3 6 -5 1 -5 -13z"/>
<path d="M11137 3324 c-8 -9 2 -50 20 -83 l15 -26 -7 25 c-19 72 -19 76 -2 61
15 -12 17 -11 17 8 0 20 -28 30 -43 15z"/>
<path d="M9072 3271 c4 -13 18 -16 19 -4 0 4 -5 9 -11 12 -7 2 -11 -2 -8 -8z"/>
<path d="M7362 3220 c0 -14 2 -19 5 -12 2 6 2 18 0 25 -3 6 -5 1 -5 -13z"/>
<path d="M14606 3214 c-11 -28 -6 -54 9 -54 8 0 15 7 15 15 0 9 10 15 26 15
20 0 25 4 20 16 -3 9 -6 18 -6 20 0 12 -59 2 -64 -12z"/>
<path d="M8459 3133 c-1 -5 -1 -11 0 -15 0 -5 -6 -8 -14 -8 -35 0 -9 -36 30
-42 17 -3 37 -7 45 -9 23 -6 26 52 4 68 -19 14 -63 18 -65 6z"/>
<path d="M8560 3115 c0 -8 4 -15 10 -15 5 0 7 7 4 15 -4 8 -8 15 -10 15 -2 0
-4 -7 -4 -15z"/>
<path d="M8020 3059 c0 -12 8 -23 19 -26 11 -3 22 -12 26 -21 5 -14 7 -14 15
-2 14 22 12 27 -10 33 -11 3 -20 12 -20 21 0 9 -7 16 -15 16 -9 0 -15 -9 -15
-21z"/>
<path d="M14305 3040 c-3 -5 -1 -10 4 -10 6 0 11 5 11 10 0 6 -2 10 -4 10 -3
0 -8 -4 -11 -10z"/>
<path d="M14231 2974 c0 -11 3 -14 6 -6 3 7 2 16 -1 19 -3 4 -6 -2 -5 -13z"/>
<path d="M7348 2953 c6 -2 18 -2 25 0 6 3 1 5 -13 5 -14 0 -19 -2 -12 -5z"/>
<path d="M8128 2953 c7 -3 16 -2 19 1 4 3 -2 6 -13 5 -11 0 -14 -3 -6 -6z"/>
<path d="M7319 2923 c-13 -15 -12 -15 9 -4 23 12 28 21 13 21 -5 0 -15 -7 -22
-17z"/>
<path d="M7370 2930 c0 -5 5 -10 10 -10 6 0 10 5 10 10 0 6 -4 10 -10 10 -5 0
-10 -4 -10 -10z"/>
<path d="M10744 2902 c-17 -11 -13 -44 3 -37 8 3 17 5 19 5 7 0 4 29 -4 34 -4
2 -13 2 -18 -2z"/>
<path d="M14840 2838 c0 -4 9 -8 20 -8 11 0 20 4 20 8 0 4 -9 8 -20 8 -11 0
-20 -4 -20 -8z"/>
<path d="M7351 2744 c0 -11 3 -14 6 -6 3 7 2 16 -1 19 -3 4 -6 -2 -5 -13z"/>
</g>
</svg>
